<svg xmlns="http://www.w3.org/2000/svg" xmlns:xlink="http://www.w3.org/1999/xlink" width="500" zoomAndPan="magnify" viewBox="0 0 375 374.999991" height="500" preserveAspectRatio="xMidYMid meet" version="1.0"><defs><g/><clipPath id="68ded2c6f3"><path d="M 102.316406 88 L 252.316406 88 L 252.316406 129.609375 L 102.316406 129.609375 Z M 102.316406 88 " clip-rule="nonzero"/></clipPath><clipPath id="6e05506e14"><path d="M 174 47.859375 L 200 47.859375 L 200 66 L 174 66 Z M 174 47.859375 " clip-rule="nonzero"/></clipPath><clipPath id="283ba22987"><path d="M 201 47.859375 L 216 47.859375 L 216 60 L 201 60 Z M 201 47.859375 " clip-rule="nonzero"/></clipPath></defs><g clip-path="url(#68ded2c6f3)"><path fill="#ffb703" d="M 150.832031 88.164062 L 164.464844 101.777344 L 164.464844 93.417969 L 169.359375 93.417969 L 169.359375 106.664062 L 187.453125 124.730469 L 252.289062 124.730469 L 252.289062 129.617188 L 165.527344 129.617188 L 165.527344 124.730469 L 180.371094 124.730469 L 150.832031 95.238281 L 146.953125 99.109375 L 162.109375 114.246094 L 155.027344 114.246094 L 143.414062 102.644531 L 120.71875 125.308594 L 116.40625 129.617188 L 102.347656 129.617188 L 102.347656 124.730469 L 114.214844 124.730469 L 117.175781 121.773438 Z M 150.832031 88.164062 " fill-opacity="1" fill-rule="evenodd"/></g><g clip-path="url(#6e05506e14)"><path fill="#1d75be" d="M 174.976562 61.996094 L 199.5 47.859375 L 199.5 51.445312 L 174.976562 65.582031 Z M 174.976562 61.996094 " fill-opacity="1" fill-rule="evenodd"/></g><path fill="#1d75be" d="M 174.976562 68.621094 L 199.5 54.484375 L 199.5 58.074219 L 174.976562 72.210938 Z M 174.976562 68.621094 " fill-opacity="1" fill-rule="evenodd"/><path fill="#1d75be" d="M 174.976562 75.25 L 199.5 61.109375 L 199.5 64.699219 L 174.976562 78.835938 Z M 174.976562 75.25 " fill-opacity="1" fill-rule="evenodd"/><path fill="#1d75be" d="M 174.976562 81.875 L 199.5 67.738281 L 199.5 71.328125 L 174.976562 85.464844 Z M 174.976562 81.875 " fill-opacity="1" fill-rule="evenodd"/><path fill="#1d75be" d="M 174.976562 88.5 L 199.5 74.363281 L 199.5 77.953125 L 174.976562 92.089844 Z M 174.976562 88.5 " fill-opacity="1" fill-rule="evenodd"/><path fill="#1d75be" d="M 174.976562 95.128906 L 199.5 80.992188 L 199.5 84.578125 L 174.976562 98.714844 Z M 174.976562 95.128906 " fill-opacity="1" fill-rule="evenodd"/><path fill="#1d75be" d="M 174.976562 101.753906 L 199.5 87.617188 L 199.5 91.207031 L 174.976562 105.34375 Z M 174.976562 101.753906 " fill-opacity="1" fill-rule="evenodd"/><path fill="#1d75be" d="M 176.304688 107.617188 L 199.5 94.242188 L 199.5 97.832031 L 178.582031 109.890625 Z M 176.304688 107.617188 " fill-opacity="1" fill-rule="evenodd"/><path fill="#1d75be" d="M 180.511719 111.820312 L 199.5 100.871094 L 199.5 104.460938 L 182.789062 114.09375 Z M 180.511719 111.820312 " fill-opacity="1" fill-rule="evenodd"/><path fill="#1d75be" d="M 184.71875 116.019531 L 199.5 107.496094 L 199.5 111.085938 L 186.996094 118.292969 Z M 184.71875 116.019531 " fill-opacity="1" fill-rule="evenodd"/><path fill="#1d75be" d="M 188.925781 120.21875 L 199.5 114.125 L 199.5 117.710938 L 193.742188 121.035156 L 189.738281 121.035156 Z M 188.925781 120.21875 " fill-opacity="1" fill-rule="evenodd"/><g clip-path="url(#283ba22987)"><path fill="#1d75be" d="M 215.070312 55.660156 L 201.535156 47.859375 L 201.535156 51.445312 L 215.070312 59.25 Z M 215.070312 55.660156 " fill-opacity="1" fill-rule="evenodd"/></g><path fill="#1d75be" d="M 215.070312 62.285156 L 201.535156 54.484375 L 201.535156 58.074219 L 215.070312 65.875 Z M 215.070312 62.285156 " fill-opacity="1" fill-rule="evenodd"/><path fill="#1d75be" d="M 215.070312 68.914062 L 201.535156 61.109375 L 201.535156 64.699219 L 215.070312 72.5 Z M 215.070312 68.914062 " fill-opacity="1" fill-rule="evenodd"/><path fill="#1d75be" d="M 215.070312 75.539062 L 201.535156 67.738281 L 201.535156 71.328125 L 215.070312 79.128906 Z M 215.070312 75.539062 " fill-opacity="1" fill-rule="evenodd"/><path fill="#1d75be" d="M 215.070312 82.167969 L 201.535156 74.363281 L 201.535156 77.953125 L 215.070312 85.753906 Z M 215.070312 82.167969 " fill-opacity="1" fill-rule="evenodd"/><path fill="#1d75be" d="M 215.070312 88.792969 L 201.535156 80.992188 L 201.535156 84.578125 L 215.070312 92.382812 Z M 215.070312 88.792969 " fill-opacity="1" fill-rule="evenodd"/><path fill="#1d75be" d="M 215.070312 95.421875 L 201.535156 87.617188 L 201.535156 91.207031 L 215.070312 99.007812 Z M 215.070312 95.421875 " fill-opacity="1" fill-rule="evenodd"/><path fill="#1d75be" d="M 215.070312 102.046875 L 201.535156 94.242188 L 201.535156 97.832031 L 215.070312 105.632812 Z M 215.070312 102.046875 " fill-opacity="1" fill-rule="evenodd"/><path fill="#1d75be" d="M 215.070312 108.671875 L 201.535156 100.871094 L 201.535156 104.460938 L 215.070312 112.261719 Z M 215.070312 108.671875 " fill-opacity="1" fill-rule="evenodd"/><path fill="#1d75be" d="M 215.070312 115.300781 L 201.535156 107.496094 L 201.535156 111.085938 L 215.070312 118.886719 Z M 215.070312 115.300781 " fill-opacity="1" fill-rule="evenodd"/><path fill="#1d75be" d="M 213.519531 121.035156 L 201.535156 114.125 L 201.535156 117.710938 L 207.292969 121.035156 Z M 213.519531 121.035156 " fill-opacity="1" fill-rule="evenodd"/><path fill="#02adee" d="M 244.765625 92.613281 L 228.691406 83.347656 L 228.691406 85.699219 L 244.765625 94.96875 Z M 244.765625 92.613281 " fill-opacity="1" fill-rule="evenodd"/><path fill="#02adee" d="M 244.765625 96.957031 L 228.691406 87.691406 L 228.691406 90.042969 L 244.765625 99.3125 Z M 244.765625 96.957031 " fill-opacity="1" fill-rule="evenodd"/><path fill="#02adee" d="M 244.765625 101.304688 L 228.691406 92.035156 L 228.691406 94.386719 L 244.765625 103.65625 Z M 244.765625 101.304688 " fill-opacity="1" fill-rule="evenodd"/><path fill="#02adee" d="M 244.765625 105.648438 L 228.691406 96.378906 L 228.691406 98.734375 L 244.765625 108 Z M 244.765625 105.648438 " fill-opacity="1" fill-rule="evenodd"/><path fill="#02adee" d="M 244.765625 109.992188 L 228.691406 100.722656 L 228.691406 103.074219 L 244.765625 112.34375 Z M 244.765625 109.992188 " fill-opacity="1" fill-rule="evenodd"/><path fill="#02adee" d="M 244.765625 114.335938 L 228.691406 105.066406 L 228.691406 107.421875 L 244.765625 116.6875 Z M 244.765625 114.335938 " fill-opacity="1" fill-rule="evenodd"/><path fill="#02adee" d="M 244.765625 118.679688 L 228.691406 109.414062 L 228.691406 111.765625 L 244.765625 121.035156 Z M 244.765625 118.679688 " fill-opacity="1" fill-rule="evenodd"/><path fill="#02adee" d="M 241.308594 121.035156 L 228.691406 113.757812 L 228.691406 116.109375 L 237.230469 121.035156 Z M 241.308594 121.035156 " fill-opacity="1" fill-rule="evenodd"/><path fill="#02adee" d="M 233.773438 121.035156 L 228.691406 118.101562 L 228.691406 120.453125 L 229.695312 121.035156 Z M 233.773438 121.035156 " fill-opacity="1" fill-rule="evenodd"/><path fill="#02adee" d="M 218.484375 88.460938 L 227.355469 83.347656 L 227.355469 85.699219 L 218.484375 90.8125 Z M 218.484375 88.460938 " fill-opacity="1" fill-rule="evenodd"/><path fill="#02adee" d="M 218.484375 92.804688 L 227.355469 87.691406 L 227.355469 90.042969 L 218.484375 95.160156 Z M 218.484375 92.804688 " fill-opacity="1" fill-rule="evenodd"/><path fill="#02adee" d="M 218.484375 97.148438 L 227.355469 92.035156 L 227.355469 94.386719 L 218.484375 99.503906 Z M 218.484375 97.148438 " fill-opacity="1" fill-rule="evenodd"/><path fill="#02adee" d="M 218.484375 101.492188 L 227.355469 96.378906 L 227.355469 98.734375 L 218.484375 103.847656 Z M 218.484375 101.492188 " fill-opacity="1" fill-rule="evenodd"/><path fill="#02adee" d="M 218.484375 105.839844 L 227.355469 100.722656 L 227.355469 103.074219 L 218.484375 108.191406 Z M 218.484375 105.839844 " fill-opacity="1" fill-rule="evenodd"/><path fill="#02adee" d="M 218.484375 110.183594 L 227.355469 105.066406 L 227.355469 107.421875 L 218.484375 112.535156 Z M 218.484375 110.183594 " fill-opacity="1" fill-rule="evenodd"/><path fill="#02adee" d="M 218.484375 114.527344 L 227.355469 109.414062 L 227.355469 111.765625 L 218.484375 116.878906 Z M 218.484375 114.527344 " fill-opacity="1" fill-rule="evenodd"/><path fill="#02adee" d="M 218.484375 118.871094 L 227.355469 113.757812 L 227.355469 116.109375 L 218.8125 121.035156 L 218.484375 121.035156 Z M 218.484375 118.871094 " fill-opacity="1" fill-rule="evenodd"/><path fill="#02adee" d="M 222.269531 121.035156 L 227.355469 118.101562 L 227.355469 120.453125 L 226.347656 121.035156 Z M 222.269531 121.035156 " fill-opacity="1" fill-rule="evenodd"/><path fill="#02adee" d="M 142.003906 68.203125 L 116.542969 82.613281 L 116.542969 116.542969 L 142.003906 91.117188 Z M 142.003906 68.203125 " fill-opacity="1" fill-rule="evenodd"/><path fill="#1d75be" d="M 145.640625 49.21875 L 145.640625 87.484375 L 150.832031 82.300781 L 158.371094 89.824219 L 158.371094 63.632812 Z M 145.640625 49.21875 " fill-opacity="1" fill-rule="evenodd"/><path fill="#ffb703" d="M 144.316406 113.425781 L 147.542969 113.425781 L 147.542969 116.648438 L 144.316406 116.648438 Z M 144.316406 117.851562 L 147.542969 117.851562 L 147.542969 121.070312 L 144.316406 121.070312 Z M 139.945312 117.851562 L 143.171875 117.851562 L 143.171875 121.070312 L 139.945312 121.070312 Z M 139.945312 113.425781 L 143.171875 113.425781 L 143.171875 116.648438 L 139.945312 116.648438 Z M 139.945312 113.425781 " fill-opacity="1" fill-rule="evenodd"/><g fill="#8ecae6" fill-opacity="0.4"><g transform="translate(94.788235, 165.084803)"><g><path d="M 0.160156 0 L 10.851562 0 L 13.445312 -16.804688 L 13.523438 -16.804688 L 17.777344 0 L 26.804688 0 L 36.199219 -16.804688 L 36.28125 -16.765625 L 33.566406 0 L 44.257812 0 L 48.875 -29.15625 L 33.851562 -29.15625 L 24.011719 -11.621094 L 23.929688 -11.621094 L 19.761719 -29.15625 L 4.777344 -29.15625 Z M 0.160156 0 "/></g></g></g><g fill="#8ecae6" fill-opacity="0.4"><g transform="translate(140.498945, 165.084803)"><g><path d="M 8.421875 9.152344 C 18.546875 9.152344 25.875 4.292969 27.089844 -3.28125 L 29.882812 -21.054688 L 19.394531 -21.054688 L 17.777344 -10.890625 C 17.453125 -8.625 15.953125 -7.207031 13.96875 -7.207031 C 12.308594 -7.207031 11.460938 -8.542969 11.785156 -10.609375 L 13.445312 -21.054688 L 2.957031 -21.054688 L 1.011719 -8.949219 C 0.160156 -3.804688 2.914062 -0.285156 8.140625 -0.285156 C 11.945312 -0.285156 15.386719 -2.347656 17.007812 -5.667969 L 17.046875 -5.667969 L 16.804688 -4.007812 C 16.277344 -0.730469 13.039062 1.375 8.585938 1.375 C 5.992188 1.375 2.835938 0.527344 0.445312 -0.808594 L -3.480469 6.355469 C -0.566406 8.097656 4.089844 9.152344 8.421875 9.152344 Z M 8.421875 9.152344 "/></g></g></g><g fill="#8ecae6" fill-opacity="0.4"><g transform="translate(167.989918, 165.084803)"><g><path d="M -0.363281 0 L 10.125 0 L 11.863281 -11.054688 C 12.1875 -13.363281 13.644531 -14.699219 15.671875 -14.699219 C 17.410156 -14.699219 18.261719 -13.605469 17.9375 -11.703125 L 16.117188 0 L 26.5625 0 L 28.75 -13.765625 C 29.558594 -18.585938 26.804688 -21.542969 21.867188 -21.542969 C 17.816406 -21.542969 14.78125 -19.515625 12.714844 -16.277344 L 12.675781 -16.277344 L 14.941406 -30.371094 L 4.453125 -30.371094 Z M -0.363281 0 "/></g></g></g><g fill="#8ecae6" fill-opacity="0.4"><g transform="translate(195.318933, 165.084803)"><g><path d="M 14.820312 0.648438 C 19.640625 0.648438 24.296875 -0.972656 26.726562 -3.402344 L 22.796875 -7.25 C 21.257812 -6.277344 18.464844 -5.546875 15.875 -5.546875 C 13.445312 -5.546875 11.378906 -6.277344 10.933594 -8.097656 L 27.496094 -8.097656 C 28.101562 -9.230469 28.507812 -11.214844 28.507812 -12.675781 C 28.507812 -18.222656 23.808594 -21.703125 16.195312 -21.703125 C 7.816406 -21.703125 0.527344 -16.519531 0.527344 -8.785156 C 0.527344 -2.957031 6.074219 0.648438 14.820312 0.648438 Z M 11.582031 -12.511719 C 12.105469 -14.457031 13.6875 -15.710938 15.589844 -15.710938 C 17.332031 -15.710938 18.34375 -14.617188 18.261719 -12.511719 Z M 11.582031 -12.511719 "/></g></g></g><g fill="#8ecae6" fill-opacity="0.4"><g transform="translate(222.324047, 165.084803)"><g><path d="M -0.363281 0 L 10.125 0 L 14.941406 -30.371094 L 4.453125 -30.371094 Z M -0.363281 0 "/></g></g></g><g fill="#8ecae6" fill-opacity="0.4"><g transform="translate(233.376773, 165.084803)"><g><path d="M -1.699219 8.503906 L 8.785156 8.503906 L 10.890625 -4.695312 L 10.933594 -4.695312 C 11.703125 -1.457031 14.535156 0.484375 18.34375 0.484375 C 25.1875 0.484375 29.640625 -6.074219 29.640625 -13.28125 C 29.640625 -18.425781 26.765625 -21.542969 21.867188 -21.542969 C 17.980469 -21.542969 14.414062 -19.597656 12.59375 -16.277344 L 12.550781 -16.277344 L 11.945312 -21.054688 L 2.957031 -21.054688 Z M 14.617188 -7.085938 C 12.550781 -7.085938 11.339844 -8.140625 11.339844 -9.71875 C 11.339844 -11.945312 13.121094 -13.96875 15.671875 -13.96875 C 17.777344 -13.96875 18.992188 -12.917969 18.992188 -11.339844 C 18.992188 -9.109375 17.210938 -7.085938 14.617188 -7.085938 Z M 14.617188 -7.085938 "/></g></g></g><g fill="#8ecae6" fill-opacity="1"><g transform="translate(92.998373, 163.29494)"><g><path d="M 0.160156 0 L 10.851562 0 L 13.445312 -16.804688 L 13.523438 -16.804688 L 17.777344 0 L 26.804688 0 L 36.199219 -16.804688 L 36.28125 -16.765625 L 33.566406 0 L 44.257812 0 L 48.875 -29.15625 L 33.851562 -29.15625 L 24.011719 -11.621094 L 23.929688 -11.621094 L 19.761719 -29.15625 L 4.777344 -29.15625 Z M 0.160156 0 "/></g></g></g><g fill="#8ecae6" fill-opacity="1"><g transform="translate(138.709082, 163.29494)"><g><path d="M 8.421875 9.152344 C 18.546875 9.152344 25.875 4.292969 27.089844 -3.28125 L 29.882812 -21.054688 L 19.394531 -21.054688 L 17.777344 -10.890625 C 17.453125 -8.625 15.953125 -7.207031 13.96875 -7.207031 C 12.308594 -7.207031 11.460938 -8.542969 11.785156 -10.609375 L 13.445312 -21.054688 L 2.957031 -21.054688 L 1.011719 -8.949219 C 0.160156 -3.804688 2.914062 -0.285156 8.140625 -0.285156 C 11.945312 -0.285156 15.386719 -2.347656 17.007812 -5.667969 L 17.046875 -5.667969 L 16.804688 -4.007812 C 16.277344 -0.730469 13.039062 1.375 8.585938 1.375 C 5.992188 1.375 2.835938 0.527344 0.445312 -0.808594 L -3.480469 6.355469 C -0.566406 8.097656 4.089844 9.152344 8.421875 9.152344 Z M 8.421875 9.152344 "/></g></g></g><g fill="#8ecae6" fill-opacity="1"><g transform="translate(166.200055, 163.29494)"><g><path d="M -0.363281 0 L 10.125 0 L 11.863281 -11.054688 C 12.1875 -13.363281 13.644531 -14.699219 15.671875 -14.699219 C 17.410156 -14.699219 18.261719 -13.605469 17.9375 -11.703125 L 16.117188 0 L 26.5625 0 L 28.75 -13.765625 C 29.558594 -18.585938 26.804688 -21.542969 21.867188 -21.542969 C 17.816406 -21.542969 14.78125 -19.515625 12.714844 -16.277344 L 12.675781 -16.277344 L 14.941406 -30.371094 L 4.453125 -30.371094 Z M -0.363281 0 "/></g></g></g><g fill="#8ecae6" fill-opacity="1"><g transform="translate(193.529071, 163.29494)"><g><path d="M 14.820312 0.648438 C 19.640625 0.648438 24.296875 -0.972656 26.726562 -3.402344 L 22.796875 -7.25 C 21.257812 -6.277344 18.464844 -5.546875 15.875 -5.546875 C 13.445312 -5.546875 11.378906 -6.277344 10.933594 -8.097656 L 27.496094 -8.097656 C 28.101562 -9.230469 28.507812 -11.214844 28.507812 -12.675781 C 28.507812 -18.222656 23.808594 -21.703125 16.195312 -21.703125 C 7.816406 -21.703125 0.527344 -16.519531 0.527344 -8.785156 C 0.527344 -2.957031 6.074219 0.648438 14.820312 0.648438 Z M 11.582031 -12.511719 C 12.105469 -14.457031 13.6875 -15.710938 15.589844 -15.710938 C 17.332031 -15.710938 18.34375 -14.617188 18.261719 -12.511719 Z M 11.582031 -12.511719 "/></g></g></g><g fill="#8ecae6" fill-opacity="1"><g transform="translate(220.534185, 163.29494)"><g><path d="M -0.363281 0 L 10.125 0 L 14.941406 -30.371094 L 4.453125 -30.371094 Z M -0.363281 0 "/></g></g></g><g fill="#8ecae6" fill-opacity="1"><g transform="translate(231.586911, 163.29494)"><g><path d="M -1.699219 8.503906 L 8.785156 8.503906 L 10.890625 -4.695312 L 10.933594 -4.695312 C 11.703125 -1.457031 14.535156 0.484375 18.34375 0.484375 C 25.1875 0.484375 29.640625 -6.074219 29.640625 -13.28125 C 29.640625 -18.425781 26.765625 -21.542969 21.867188 -21.542969 C 17.980469 -21.542969 14.414062 -19.597656 12.59375 -16.277344 L 12.550781 -16.277344 L 11.945312 -21.054688 L 2.957031 -21.054688 Z M 14.617188 -7.085938 C 12.550781 -7.085938 11.339844 -8.140625 11.339844 -9.71875 C 11.339844 -11.945312 13.121094 -13.96875 15.671875 -13.96875 C 17.777344 -13.96875 18.992188 -12.917969 18.992188 -11.339844 C 18.992188 -9.109375 17.210938 -7.085938 14.617188 -7.085938 Z M 14.617188 -7.085938 "/></g></g></g><g fill="#a67806" fill-opacity="0.4"><g transform="translate(101.149812, 189.189386)"><g><path d="M 1.390625 0 L 0.71875 0 C 0.625 0 0.582031 -0.046875 0.59375 -0.140625 L 0.984375 -2.921875 C 1.003906 -3.023438 1.0625 -3.078125 1.15625 -3.078125 L 1.90625 -3.078125 C 2.007812 -3.078125 2.050781 -3.023438 2.03125 -2.921875 L 2 -2.671875 C 1.976562 -2.535156 2.039062 -2.335938 2.1875 -2.078125 C 2.332031 -1.828125 2.484375 -1.617188 2.640625 -1.453125 C 2.804688 -1.296875 3.03125 -1.160156 3.3125 -1.046875 C 3.601562 -0.929688 3.929688 -0.875 4.296875 -0.875 C 4.960938 -0.875 5.488281 -1.015625 5.875 -1.296875 C 6.257812 -1.578125 6.453125 -1.96875 6.453125 -2.46875 C 6.453125 -2.90625 6.140625 -3.234375 5.515625 -3.453125 C 5.234375 -3.554688 4.921875 -3.648438 4.578125 -3.734375 C 4.242188 -3.816406 3.90625 -3.910156 3.5625 -4.015625 C 3.226562 -4.128906 2.921875 -4.265625 2.640625 -4.421875 C 2.359375 -4.578125 2.128906 -4.789062 1.953125 -5.0625 C 1.785156 -5.332031 1.703125 -5.65625 1.703125 -6.03125 C 1.703125 -6.757812 1.988281 -7.367188 2.5625 -7.859375 C 3.144531 -8.359375 3.898438 -8.609375 4.828125 -8.609375 C 5.910156 -8.609375 6.648438 -8.296875 7.046875 -7.671875 L 7.140625 -8.40625 C 7.148438 -8.5 7.203125 -8.546875 7.296875 -8.546875 L 7.984375 -8.546875 C 8.066406 -8.546875 8.101562 -8.5 8.09375 -8.40625 L 7.734375 -5.8125 C 7.710938 -5.71875 7.65625 -5.671875 7.5625 -5.671875 L 6.8125 -5.671875 C 6.726562 -5.671875 6.6875 -5.71875 6.6875 -5.8125 L 6.734375 -6.140625 C 6.742188 -6.179688 6.75 -6.21875 6.75 -6.25 C 6.75 -6.539062 6.597656 -6.84375 6.296875 -7.15625 C 6.003906 -7.476562 5.539062 -7.640625 4.90625 -7.640625 C 4.269531 -7.640625 3.765625 -7.5 3.390625 -7.21875 C 3.023438 -6.9375 2.84375 -6.601562 2.84375 -6.21875 C 2.84375 -5.832031 3.007812 -5.535156 3.34375 -5.328125 C 3.675781 -5.128906 4.078125 -4.972656 4.546875 -4.859375 C 5.023438 -4.742188 5.5 -4.613281 5.96875 -4.46875 C 6.445312 -4.320312 6.851562 -4.09375 7.1875 -3.78125 C 7.519531 -3.46875 7.6875 -3.0625 7.6875 -2.5625 C 7.6875 -1.832031 7.40625 -1.207031 6.84375 -0.6875 C 6.28125 -0.175781 5.453125 0.078125 4.359375 0.078125 C 3.628906 0.078125 3.046875 -0.0664062 2.609375 -0.359375 C 2.179688 -0.648438 1.882812 -0.96875 1.71875 -1.3125 L 1.5625 -0.140625 C 1.550781 -0.046875 1.492188 0 1.390625 0 Z M 1.390625 0 "/></g></g></g><g fill="#a67806" fill-opacity="0.4"><g transform="translate(109.666229, 189.189386)"><g><path d="M 6.140625 -2.8125 L 1.859375 -2.8125 C 1.859375 -2.707031 1.859375 -2.601562 1.859375 -2.5 C 1.859375 -1.988281 2.007812 -1.566406 2.3125 -1.234375 C 2.613281 -0.910156 3.003906 -0.75 3.484375 -0.75 C 3.972656 -0.75 4.398438 -0.851562 4.765625 -1.0625 C 5.140625 -1.269531 5.40625 -1.472656 5.5625 -1.671875 C 5.632812 -1.742188 5.707031 -1.753906 5.78125 -1.703125 L 6.0625 -1.375 C 6.132812 -1.300781 6.140625 -1.222656 6.078125 -1.140625 C 6.015625 -1.066406 5.914062 -0.96875 5.78125 -0.84375 C 5.65625 -0.726562 5.476562 -0.597656 5.25 -0.453125 C 4.71875 -0.0976562 4.085938 0.078125 3.359375 0.078125 C 2.628906 0.078125 2.023438 -0.148438 1.546875 -0.609375 C 1.066406 -1.078125 0.828125 -1.6875 0.828125 -2.4375 C 0.828125 -3.1875 0.988281 -3.828125 1.3125 -4.359375 C 1.644531 -4.890625 2.054688 -5.285156 2.546875 -5.546875 C 3.046875 -5.804688 3.566406 -5.9375 4.109375 -5.9375 C 4.828125 -5.9375 5.382812 -5.722656 5.78125 -5.296875 C 6.1875 -4.867188 6.390625 -4.28125 6.390625 -3.53125 C 6.390625 -3.050781 6.304688 -2.8125 6.140625 -2.8125 Z M 5.453125 -3.734375 C 5.453125 -4.128906 5.332031 -4.460938 5.09375 -4.734375 C 4.863281 -5.015625 4.507812 -5.15625 4.03125 -5.15625 C 3.5625 -5.15625 3.140625 -5.019531 2.765625 -4.75 C 2.390625 -4.476562 2.128906 -4.070312 1.984375 -3.53125 L 5.4375 -3.53125 C 5.445312 -3.601562 5.453125 -3.671875 5.453125 -3.734375 Z M 5.453125 -3.734375 "/></g></g></g><g fill="#a67806" fill-opacity="0.4"><g transform="translate(116.660157, 189.189386)"><g><path d="M 2.875 0 L 0.609375 0 C 0.503906 0 0.457031 -0.046875 0.46875 -0.140625 L 0.5625 -0.65625 C 0.570312 -0.75 0.625 -0.796875 0.71875 -0.796875 L 1.375 -0.796875 L 1.984375 -5.046875 L 1.3125 -5.046875 C 1.21875 -5.046875 1.175781 -5.097656 1.1875 -5.203125 L 1.265625 -5.703125 C 1.273438 -5.796875 1.328125 -5.84375 1.421875 -5.84375 L 2.828125 -5.84375 C 2.929688 -5.84375 2.972656 -5.796875 2.953125 -5.703125 L 2.75 -4.21875 L 2.78125 -4.21875 C 2.832031 -4.351562 2.941406 -4.53125 3.109375 -4.75 C 3.273438 -4.96875 3.453125 -5.148438 3.640625 -5.296875 C 3.835938 -5.441406 4.101562 -5.570312 4.4375 -5.6875 C 4.78125 -5.8125 5.15625 -5.875 5.5625 -5.875 C 5.664062 -5.875 5.710938 -5.820312 5.703125 -5.71875 L 5.59375 -5.09375 C 5.582031 -4.988281 5.53125 -4.9375 5.4375 -4.9375 L 5.1875 -4.9375 C 4.5 -4.9375 3.921875 -4.71875 3.453125 -4.28125 C 2.992188 -3.84375 2.722656 -3.347656 2.640625 -2.796875 L 2.359375 -0.796875 L 3 -0.796875 C 3.09375 -0.796875 3.132812 -0.75 3.125 -0.65625 L 3.0625 -0.140625 C 3.050781 -0.046875 2.988281 0 2.875 0 Z M 2.875 0 "/></g></g></g><g fill="#a67806" fill-opacity="0.4"><g transform="translate(122.262433, 189.189386)"><g><path d="M 3.875 0 L 3.078125 0 C 2.992188 0 2.9375 -0.0078125 2.90625 -0.03125 C 2.875 -0.0625 2.851562 -0.125 2.84375 -0.21875 L 1.640625 -5.046875 L 0.96875 -5.046875 C 0.875 -5.046875 0.832031 -5.097656 0.84375 -5.203125 L 0.921875 -5.703125 C 0.941406 -5.796875 0.992188 -5.84375 1.078125 -5.84375 L 3.296875 -5.84375 C 3.378906 -5.84375 3.414062 -5.796875 3.40625 -5.703125 L 3.359375 -5.203125 C 3.335938 -5.097656 3.273438 -5.046875 3.171875 -5.046875 L 2.65625 -5.046875 L 3.609375 -1.046875 L 3.640625 -1.046875 L 5.75 -5.046875 L 5.203125 -5.046875 C 5.109375 -5.046875 5.070312 -5.097656 5.09375 -5.203125 L 5.15625 -5.703125 C 5.175781 -5.796875 5.234375 -5.84375 5.328125 -5.84375 L 7.53125 -5.84375 C 7.632812 -5.84375 7.679688 -5.796875 7.671875 -5.703125 L 7.59375 -5.203125 C 7.59375 -5.097656 7.539062 -5.046875 7.4375 -5.046875 L 6.765625 -5.046875 L 4.1875 -0.21875 C 4.101562 -0.0703125 4 0 3.875 0 Z M 3.875 0 "/></g></g></g><g fill="#a67806" fill-opacity="0.4"><g transform="translate(129.851083, 189.189386)"><g><path d="M 2.875 0 L 0.609375 0 C 0.503906 0 0.457031 -0.046875 0.46875 -0.140625 L 0.5625 -0.65625 C 0.570312 -0.75 0.625 -0.796875 0.71875 -0.796875 L 1.375 -0.796875 L 1.984375 -5.046875 L 1.3125 -5.046875 C 1.21875 -5.046875 1.175781 -5.097656 1.1875 -5.203125 L 1.265625 -5.703125 C 1.273438 -5.796875 1.328125 -5.84375 1.421875 -5.84375 L 2.921875 -5.84375 C 3.015625 -5.84375 3.0625 -5.796875 3.0625 -5.703125 L 2.359375 -0.796875 L 3 -0.796875 C 3.09375 -0.796875 3.132812 -0.75 3.125 -0.65625 L 3.0625 -0.140625 C 3.050781 -0.046875 2.988281 0 2.875 0 Z M 2.8125 -7.8125 C 3 -7.8125 3.144531 -7.753906 3.25 -7.640625 C 3.363281 -7.523438 3.421875 -7.375 3.421875 -7.1875 C 3.421875 -7.007812 3.34375 -6.847656 3.1875 -6.703125 C 3.03125 -6.554688 2.859375 -6.484375 2.671875 -6.484375 C 2.492188 -6.484375 2.347656 -6.535156 2.234375 -6.640625 C 2.128906 -6.753906 2.078125 -6.898438 2.078125 -7.078125 C 2.078125 -7.265625 2.148438 -7.429688 2.296875 -7.578125 C 2.453125 -7.734375 2.625 -7.8125 2.8125 -7.8125 Z M 2.8125 -7.8125 "/></g></g></g><g fill="#a67806" fill-opacity="0.4"><g transform="translate(133.930869, 189.189386)"><g><path d="M 3.375 0.078125 C 2.625 0.078125 2.007812 -0.148438 1.53125 -0.609375 C 1.0625 -1.078125 0.828125 -1.710938 0.828125 -2.515625 C 0.828125 -3.546875 1.160156 -4.375 1.828125 -5 C 2.492188 -5.625 3.253906 -5.9375 4.109375 -5.9375 C 4.960938 -5.9375 5.554688 -5.640625 5.890625 -5.046875 L 5.984375 -5.703125 C 5.992188 -5.804688 6.046875 -5.859375 6.140625 -5.859375 L 6.59375 -5.859375 C 6.695312 -5.859375 6.742188 -5.804688 6.734375 -5.703125 L 6.4375 -3.6875 C 6.425781 -3.59375 6.375 -3.546875 6.28125 -3.546875 L 5.75 -3.546875 C 5.644531 -3.546875 5.597656 -3.59375 5.609375 -3.6875 L 5.640625 -3.890625 C 5.640625 -3.921875 5.640625 -3.957031 5.640625 -4 C 5.640625 -4.238281 5.503906 -4.476562 5.234375 -4.71875 C 4.972656 -4.96875 4.582031 -5.09375 4.0625 -5.09375 C 3.550781 -5.09375 3.050781 -4.867188 2.5625 -4.421875 C 2.082031 -3.972656 1.84375 -3.375 1.84375 -2.625 C 1.84375 -2.050781 2.007812 -1.59375 2.34375 -1.25 C 2.675781 -0.914062 3.0625 -0.75 3.5 -0.75 C 3.945312 -0.75 4.367188 -0.859375 4.765625 -1.078125 C 5.160156 -1.296875 5.425781 -1.492188 5.5625 -1.671875 C 5.632812 -1.765625 5.707031 -1.78125 5.78125 -1.71875 L 6.0625 -1.375 C 6.132812 -1.300781 6.132812 -1.222656 6.0625 -1.140625 C 6 -1.054688 5.90625 -0.957031 5.78125 -0.84375 C 5.664062 -0.726562 5.5 -0.597656 5.28125 -0.453125 C 4.769531 -0.0976562 4.132812 0.078125 3.375 0.078125 Z M 3.375 0.078125 "/></g></g></g><g fill="#a67806" fill-opacity="0.4"><g transform="translate(140.936696, 189.189386)"><g><path d="M 2.875 0 L 0.609375 0 C 0.503906 0 0.457031 -0.046875 0.46875 -0.140625 L 0.5625 -0.65625 C 0.570312 -0.75 0.625 -0.796875 0.71875 -0.796875 L 1.375 -0.796875 L 1.984375 -5.046875 L 1.3125 -5.046875 C 1.21875 -5.046875 1.175781 -5.097656 1.1875 -5.203125 L 1.265625 -5.703125 C 1.273438 -5.796875 1.328125 -5.84375 1.421875 -5.84375 L 2.921875 -5.84375 C 3.015625 -5.84375 3.0625 -5.796875 3.0625 -5.703125 L 2.359375 -0.796875 L 3 -0.796875 C 3.09375 -0.796875 3.132812 -0.75 3.125 -0.65625 L 3.0625 -0.140625 C 3.050781 -0.046875 2.988281 0 2.875 0 Z M 2.8125 -7.8125 C 3 -7.8125 3.144531 -7.753906 3.25 -7.640625 C 3.363281 -7.523438 3.421875 -7.375 3.421875 -7.1875 C 3.421875 -7.007812 3.34375 -6.847656 3.1875 -6.703125 C 3.03125 -6.554688 2.859375 -6.484375 2.671875 -6.484375 C 2.492188 -6.484375 2.347656 -6.535156 2.234375 -6.640625 C 2.128906 -6.753906 2.078125 -6.898438 2.078125 -7.078125 C 2.078125 -7.265625 2.148438 -7.429688 2.296875 -7.578125 C 2.453125 -7.734375 2.625 -7.8125 2.8125 -7.8125 Z M 2.8125 -7.8125 "/></g></g></g><g fill="#a67806" fill-opacity="0.4"><g transform="translate(145.016482, 189.189386)"><g><path d="M 3.40625 0.078125 C 2.644531 0.078125 2.023438 -0.15625 1.546875 -0.625 C 1.066406 -1.09375 0.828125 -1.722656 0.828125 -2.515625 C 0.828125 -3.546875 1.160156 -4.375 1.828125 -5 C 2.503906 -5.625 3.3125 -5.9375 4.25 -5.9375 C 5.007812 -5.9375 5.628906 -5.703125 6.109375 -5.234375 C 6.585938 -4.773438 6.828125 -4.148438 6.828125 -3.359375 C 6.828125 -2.347656 6.492188 -1.519531 5.828125 -0.875 C 5.171875 -0.238281 4.363281 0.078125 3.40625 0.078125 Z M 1.828125 -2.609375 C 1.828125 -2.046875 1.988281 -1.59375 2.3125 -1.25 C 2.632812 -0.914062 3.066406 -0.75 3.609375 -0.75 C 4.148438 -0.75 4.65625 -0.984375 5.125 -1.453125 C 5.59375 -1.929688 5.828125 -2.535156 5.828125 -3.265625 C 5.828125 -3.816406 5.660156 -4.257812 5.328125 -4.59375 C 5.003906 -4.925781 4.609375 -5.09375 4.140625 -5.09375 C 3.535156 -5.09375 3 -4.859375 2.53125 -4.390625 C 2.0625 -3.929688 1.828125 -3.335938 1.828125 -2.609375 Z M 1.828125 -2.609375 "/></g></g></g><g fill="#a67806" fill-opacity="0.4"><g transform="translate(152.450503, 189.189386)"><g><path d="M 3.078125 0.078125 C 2.546875 0.078125 2.132812 -0.0195312 1.84375 -0.21875 C 1.5625 -0.414062 1.390625 -0.597656 1.328125 -0.765625 L 1.3125 -0.765625 C 1.269531 -0.378906 1.25 -0.175781 1.25 -0.15625 C 1.226562 -0.0507812 1.164062 0 1.0625 0 L 0.65625 0 C 0.550781 0 0.503906 -0.0507812 0.515625 -0.15625 L 0.765625 -1.9375 C 0.785156 -2.039062 0.847656 -2.09375 0.953125 -2.09375 L 1.421875 -2.09375 C 1.523438 -2.09375 1.570312 -2.039062 1.5625 -1.9375 L 1.515625 -1.703125 C 1.523438 -1.679688 1.535156 -1.644531 1.546875 -1.59375 C 1.554688 -1.539062 1.597656 -1.457031 1.671875 -1.34375 C 1.742188 -1.226562 1.832031 -1.128906 1.9375 -1.046875 C 2.195312 -0.804688 2.5625 -0.6875 3.03125 -0.6875 C 3.507812 -0.6875 3.867188 -0.773438 4.109375 -0.953125 C 4.359375 -1.140625 4.484375 -1.382812 4.484375 -1.6875 C 4.484375 -1.882812 4.367188 -2.046875 4.140625 -2.171875 C 3.921875 -2.296875 3.648438 -2.394531 3.328125 -2.46875 C 3.015625 -2.539062 2.703125 -2.625 2.390625 -2.71875 C 2.078125 -2.820312 1.804688 -2.984375 1.578125 -3.203125 C 1.359375 -3.429688 1.25 -3.71875 1.25 -4.0625 C 1.25 -4.625 1.460938 -5.078125 1.890625 -5.421875 C 2.328125 -5.765625 2.863281 -5.9375 3.5 -5.9375 C 4.28125 -5.9375 4.804688 -5.707031 5.078125 -5.25 L 5.09375 -5.25 C 5.125 -5.5 5.140625 -5.628906 5.140625 -5.640625 C 5.148438 -5.773438 5.210938 -5.84375 5.328125 -5.84375 L 5.703125 -5.84375 C 5.804688 -5.84375 5.851562 -5.789062 5.84375 -5.6875 L 5.59375 -4.03125 C 5.582031 -3.925781 5.519531 -3.875 5.40625 -3.875 L 4.953125 -3.875 C 4.847656 -3.875 4.800781 -3.925781 4.8125 -4.03125 L 4.84375 -4.203125 C 4.84375 -4.234375 4.84375 -4.265625 4.84375 -4.296875 C 4.84375 -4.472656 4.738281 -4.660156 4.53125 -4.859375 C 4.320312 -5.054688 4.007812 -5.15625 3.59375 -5.15625 C 3.1875 -5.15625 2.851562 -5.0625 2.59375 -4.875 C 2.34375 -4.695312 2.21875 -4.453125 2.21875 -4.140625 C 2.21875 -3.785156 2.609375 -3.507812 3.390625 -3.3125 C 3.710938 -3.21875 4.035156 -3.117188 4.359375 -3.015625 C 4.679688 -2.921875 4.957031 -2.769531 5.1875 -2.5625 C 5.414062 -2.351562 5.53125 -2.085938 5.53125 -1.765625 C 5.53125 -1.253906 5.320312 -0.816406 4.90625 -0.453125 C 4.5 -0.0976562 3.890625 0.078125 3.078125 0.078125 Z M 3.078125 0.078125 "/></g></g></g><g fill="#a67806" fill-opacity="0.4"><g transform="translate(158.825923, 189.189386)"><g/></g></g><g fill="#a67806" fill-opacity="0.4"><g transform="translate(163.143606, 189.189386)"><g><path d="M 6.296875 0 L 5.25 0 C 4.945312 0 4.796875 -0.125 4.796875 -0.375 C 4.796875 -0.40625 4.800781 -0.445312 4.8125 -0.5 L 4.90625 -1.109375 L 4.875 -1.109375 C 4.195312 -0.304688 3.367188 0.09375 2.390625 0.09375 C 1.867188 0.09375 1.445312 -0.0351562 1.125 -0.296875 C 0.8125 -0.554688 0.65625 -0.910156 0.65625 -1.359375 C 0.65625 -2.066406 0.960938 -2.59375 1.578125 -2.9375 C 2.203125 -3.28125 3.050781 -3.453125 4.125 -3.453125 L 5.125 -3.453125 L 5.15625 -3.59375 C 5.175781 -3.71875 5.1875 -3.835938 5.1875 -3.953125 C 5.1875 -4.703125 4.726562 -5.078125 3.8125 -5.078125 C 3.320312 -5.078125 2.960938 -5.03125 2.734375 -4.9375 C 2.515625 -4.84375 2.351562 -4.769531 2.25 -4.71875 C 2.15625 -4.664062 2.082031 -4.617188 2.03125 -4.578125 C 1.976562 -4.546875 1.945312 -4.53125 1.9375 -4.53125 C 1.851562 -4.5 1.796875 -4.507812 1.765625 -4.5625 L 1.484375 -4.984375 C 1.441406 -5.046875 1.457031 -5.109375 1.53125 -5.171875 C 1.601562 -5.242188 1.703125 -5.320312 1.828125 -5.40625 C 1.960938 -5.5 2.234375 -5.609375 2.640625 -5.734375 C 3.046875 -5.867188 3.484375 -5.9375 3.953125 -5.9375 C 5.429688 -5.9375 6.171875 -5.320312 6.171875 -4.09375 C 6.171875 -3.925781 6.15625 -3.75 6.125 -3.5625 L 5.734375 -0.796875 L 6.40625 -0.796875 C 6.5 -0.796875 6.539062 -0.75 6.53125 -0.65625 L 6.453125 -0.140625 C 6.441406 -0.046875 6.390625 0 6.296875 0 Z M 4.078125 -2.734375 C 3.347656 -2.734375 2.828125 -2.675781 2.515625 -2.5625 C 2.210938 -2.457031 2 -2.328125 1.875 -2.171875 C 1.757812 -2.023438 1.703125 -1.828125 1.703125 -1.578125 C 1.703125 -1.335938 1.800781 -1.140625 2 -0.984375 C 2.195312 -0.828125 2.46875 -0.75 2.8125 -0.75 C 3.582031 -0.75 4.273438 -1.085938 4.890625 -1.765625 L 5.015625 -2.734375 Z M 4.078125 -2.734375 "/></g></g></g><g fill="#a67806" fill-opacity="0.4"><g transform="translate(170.637099, 189.189386)"><g/></g></g><g fill="#a67806" fill-opacity="0.4"><g transform="translate(174.954782, 189.189386)"><g><path d="M 3.1875 0.078125 C 2.582031 0.078125 2.140625 -0.0859375 1.859375 -0.421875 C 1.628906 -0.691406 1.515625 -1.039062 1.515625 -1.46875 C 1.515625 -1.613281 1.53125 -1.769531 1.5625 -1.9375 L 2 -5.046875 L 1.3125 -5.046875 C 1.207031 -5.046875 1.160156 -5.097656 1.171875 -5.203125 L 1.25 -5.703125 C 1.257812 -5.796875 1.320312 -5.84375 1.4375 -5.84375 L 2.109375 -5.84375 L 2.265625 -7.046875 C 2.285156 -7.160156 2.351562 -7.21875 2.46875 -7.21875 L 3.125 -7.21875 C 3.238281 -7.21875 3.285156 -7.160156 3.265625 -7.046875 L 3.09375 -5.84375 L 4.609375 -5.84375 C 4.703125 -5.84375 4.75 -5.8125 4.75 -5.75 C 4.75 -5.726562 4.742188 -5.710938 4.734375 -5.703125 L 4.671875 -5.203125 C 4.660156 -5.097656 4.597656 -5.046875 4.484375 -5.046875 L 2.984375 -5.046875 L 2.5625 -1.96875 C 2.539062 -1.84375 2.53125 -1.726562 2.53125 -1.625 C 2.53125 -1.050781 2.816406 -0.765625 3.390625 -0.765625 C 3.628906 -0.765625 3.851562 -0.847656 4.0625 -1.015625 C 4.164062 -1.035156 4.238281 -1.019531 4.28125 -0.96875 L 4.515625 -0.609375 C 4.566406 -0.535156 4.546875 -0.457031 4.453125 -0.375 C 4.054688 -0.0703125 3.632812 0.078125 3.1875 0.078125 Z M 3.1875 0.078125 "/></g></g></g><g fill="#a67806" fill-opacity="0.4"><g transform="translate(180.319177, 189.189386)"><g><path d="M 2.40625 -5.84375 C 2.707031 -5.84375 2.859375 -5.71875 2.859375 -5.46875 C 2.859375 -5.4375 2.859375 -5.394531 2.859375 -5.34375 L 2.40625 -2.21875 C 2.382812 -2.113281 2.375 -2.007812 2.375 -1.90625 C 2.375 -1.601562 2.445312 -1.359375 2.59375 -1.171875 C 2.769531 -0.898438 3.054688 -0.765625 3.453125 -0.765625 C 3.703125 -0.765625 3.9375 -0.828125 4.15625 -0.953125 C 4.382812 -1.085938 4.566406 -1.238281 4.703125 -1.40625 C 4.835938 -1.582031 4.957031 -1.765625 5.0625 -1.953125 C 5.25 -2.296875 5.34375 -2.515625 5.34375 -2.609375 L 5.6875 -5.046875 L 5.046875 -5.046875 C 4.953125 -5.046875 4.910156 -5.097656 4.921875 -5.203125 L 5 -5.703125 C 5.007812 -5.796875 5.0625 -5.84375 5.15625 -5.84375 L 6.640625 -5.84375 C 6.734375 -5.84375 6.773438 -5.796875 6.765625 -5.703125 L 6.078125 -0.796875 L 6.734375 -0.796875 C 6.828125 -0.796875 6.867188 -0.75 6.859375 -0.65625 L 6.796875 -0.140625 C 6.785156 -0.046875 6.726562 0 6.625 0 L 5.59375 0 C 5.28125 0 5.125 -0.125 5.125 -0.375 C 5.125 -0.40625 5.128906 -0.445312 5.140625 -0.5 L 5.3125 -1.578125 L 5.28125 -1.578125 C 5.257812 -1.460938 5.179688 -1.289062 5.046875 -1.0625 C 4.921875 -0.832031 4.785156 -0.644531 4.640625 -0.5 C 4.503906 -0.351562 4.304688 -0.21875 4.046875 -0.09375 C 3.785156 0.0195312 3.492188 0.078125 3.171875 0.078125 C 2.535156 0.078125 2.0625 -0.101562 1.75 -0.46875 C 1.5 -0.769531 1.375 -1.144531 1.375 -1.59375 C 1.375 -1.71875 1.382812 -1.847656 1.40625 -1.984375 L 1.8125 -5.046875 L 1.15625 -5.046875 C 1.050781 -5.046875 1.003906 -5.097656 1.015625 -5.203125 L 1.109375 -5.703125 C 1.117188 -5.796875 1.171875 -5.84375 1.265625 -5.84375 Z M 2.40625 -5.84375 "/></g></g></g><g fill="#a67806" fill-opacity="0.4"><g transform="translate(188.145724, 189.189386)"><g/></g></g><g fill="#a67806" fill-opacity="0.4"><g transform="translate(192.463406, 189.189386)"><g><path d="M 6.78125 0 L 5.640625 0 C 5.347656 0 5.203125 -0.125 5.203125 -0.375 C 5.203125 -0.40625 5.203125 -0.445312 5.203125 -0.5 L 5.640625 -3.625 C 5.648438 -3.75 5.65625 -3.859375 5.65625 -3.953125 C 5.65625 -4.253906 5.585938 -4.5 5.453125 -4.6875 C 5.273438 -4.945312 4.988281 -5.078125 4.59375 -5.078125 C 4.320312 -5.078125 4.0625 -4.992188 3.8125 -4.828125 C 3.570312 -4.671875 3.375 -4.472656 3.21875 -4.234375 C 2.976562 -3.878906 2.8125 -3.566406 2.71875 -3.296875 L 2.359375 -0.796875 L 3 -0.796875 C 3.09375 -0.796875 3.132812 -0.75 3.125 -0.65625 L 3.0625 -0.140625 C 3.050781 -0.046875 2.988281 0 2.875 0 L 0.609375 0 C 0.503906 0 0.457031 -0.046875 0.46875 -0.140625 L 0.5625 -0.65625 C 0.570312 -0.75 0.625 -0.796875 0.71875 -0.796875 L 1.375 -0.796875 L 1.984375 -5.046875 L 1.3125 -5.046875 C 1.21875 -5.046875 1.175781 -5.097656 1.1875 -5.203125 L 1.265625 -5.703125 C 1.273438 -5.796875 1.328125 -5.84375 1.421875 -5.84375 L 2.828125 -5.84375 C 2.921875 -5.84375 2.960938 -5.796875 2.953125 -5.703125 L 2.734375 -4.28125 L 2.765625 -4.28125 C 2.785156 -4.394531 2.863281 -4.566406 3 -4.796875 C 3.132812 -5.023438 3.273438 -5.210938 3.421875 -5.359375 C 3.566406 -5.503906 3.769531 -5.632812 4.03125 -5.75 C 4.300781 -5.875 4.597656 -5.9375 4.921875 -5.9375 C 5.554688 -5.9375 6.023438 -5.75 6.328125 -5.375 C 6.566406 -5.082031 6.6875 -4.710938 6.6875 -4.265625 C 6.6875 -4.140625 6.675781 -4.003906 6.65625 -3.859375 L 6.234375 -0.796875 L 6.890625 -0.796875 C 6.992188 -0.796875 7.039062 -0.75 7.03125 -0.65625 L 6.953125 -0.140625 C 6.941406 -0.046875 6.882812 0 6.78125 0 Z M 6.78125 0 "/></g></g></g><g fill="#a67806" fill-opacity="0.4"><g transform="translate(200.44457, 189.189386)"><g><path d="M 6.140625 -2.8125 L 1.859375 -2.8125 C 1.859375 -2.707031 1.859375 -2.601562 1.859375 -2.5 C 1.859375 -1.988281 2.007812 -1.566406 2.3125 -1.234375 C 2.613281 -0.910156 3.003906 -0.75 3.484375 -0.75 C 3.972656 -0.75 4.398438 -0.851562 4.765625 -1.0625 C 5.140625 -1.269531 5.40625 -1.472656 5.5625 -1.671875 C 5.632812 -1.742188 5.707031 -1.753906 5.78125 -1.703125 L 6.0625 -1.375 C 6.132812 -1.300781 6.140625 -1.222656 6.078125 -1.140625 C 6.015625 -1.066406 5.914062 -0.96875 5.78125 -0.84375 C 5.65625 -0.726562 5.476562 -0.597656 5.25 -0.453125 C 4.71875 -0.0976562 4.085938 0.078125 3.359375 0.078125 C 2.628906 0.078125 2.023438 -0.148438 1.546875 -0.609375 C 1.066406 -1.078125 0.828125 -1.6875 0.828125 -2.4375 C 0.828125 -3.1875 0.988281 -3.828125 1.3125 -4.359375 C 1.644531 -4.890625 2.054688 -5.285156 2.546875 -5.546875 C 3.046875 -5.804688 3.566406 -5.9375 4.109375 -5.9375 C 4.828125 -5.9375 5.382812 -5.722656 5.78125 -5.296875 C 6.1875 -4.867188 6.390625 -4.28125 6.390625 -3.53125 C 6.390625 -3.050781 6.304688 -2.8125 6.140625 -2.8125 Z M 5.453125 -3.734375 C 5.453125 -4.128906 5.332031 -4.460938 5.09375 -4.734375 C 4.863281 -5.015625 4.507812 -5.15625 4.03125 -5.15625 C 3.5625 -5.15625 3.140625 -5.019531 2.765625 -4.75 C 2.390625 -4.476562 2.128906 -4.070312 1.984375 -3.53125 L 5.4375 -3.53125 C 5.445312 -3.601562 5.453125 -3.671875 5.453125 -3.734375 Z M 5.453125 -3.734375 "/></g></g></g><g fill="#a67806" fill-opacity="0.4"><g transform="translate(207.4385, 189.189386)"><g><path d="M 3.375 0.078125 C 2.625 0.078125 2.007812 -0.148438 1.53125 -0.609375 C 1.0625 -1.078125 0.828125 -1.710938 0.828125 -2.515625 C 0.828125 -3.546875 1.160156 -4.375 1.828125 -5 C 2.492188 -5.625 3.253906 -5.9375 4.109375 -5.9375 C 4.960938 -5.9375 5.554688 -5.640625 5.890625 -5.046875 L 5.984375 -5.703125 C 5.992188 -5.804688 6.046875 -5.859375 6.140625 -5.859375 L 6.59375 -5.859375 C 6.695312 -5.859375 6.742188 -5.804688 6.734375 -5.703125 L 6.4375 -3.6875 C 6.425781 -3.59375 6.375 -3.546875 6.28125 -3.546875 L 5.75 -3.546875 C 5.644531 -3.546875 5.597656 -3.59375 5.609375 -3.6875 L 5.640625 -3.890625 C 5.640625 -3.921875 5.640625 -3.957031 5.640625 -4 C 5.640625 -4.238281 5.503906 -4.476562 5.234375 -4.71875 C 4.972656 -4.96875 4.582031 -5.09375 4.0625 -5.09375 C 3.550781 -5.09375 3.050781 -4.867188 2.5625 -4.421875 C 2.082031 -3.972656 1.84375 -3.375 1.84375 -2.625 C 1.84375 -2.050781 2.007812 -1.59375 2.34375 -1.25 C 2.675781 -0.914062 3.0625 -0.75 3.5 -0.75 C 3.945312 -0.75 4.367188 -0.859375 4.765625 -1.078125 C 5.160156 -1.296875 5.425781 -1.492188 5.5625 -1.671875 C 5.632812 -1.765625 5.707031 -1.78125 5.78125 -1.71875 L 6.0625 -1.375 C 6.132812 -1.300781 6.132812 -1.222656 6.0625 -1.140625 C 6 -1.054688 5.90625 -0.957031 5.78125 -0.84375 C 5.664062 -0.726562 5.5 -0.597656 5.28125 -0.453125 C 4.769531 -0.0976562 4.132812 0.078125 3.375 0.078125 Z M 3.375 0.078125 "/></g></g></g><g fill="#a67806" fill-opacity="0.4"><g transform="translate(214.44433, 189.189386)"><g><path d="M 6.140625 -2.8125 L 1.859375 -2.8125 C 1.859375 -2.707031 1.859375 -2.601562 1.859375 -2.5 C 1.859375 -1.988281 2.007812 -1.566406 2.3125 -1.234375 C 2.613281 -0.910156 3.003906 -0.75 3.484375 -0.75 C 3.972656 -0.75 4.398438 -0.851562 4.765625 -1.0625 C 5.140625 -1.269531 5.40625 -1.472656 5.5625 -1.671875 C 5.632812 -1.742188 5.707031 -1.753906 5.78125 -1.703125 L 6.0625 -1.375 C 6.132812 -1.300781 6.140625 -1.222656 6.078125 -1.140625 C 6.015625 -1.066406 5.914062 -0.96875 5.78125 -0.84375 C 5.65625 -0.726562 5.476562 -0.597656 5.25 -0.453125 C 4.71875 -0.0976562 4.085938 0.078125 3.359375 0.078125 C 2.628906 0.078125 2.023438 -0.148438 1.546875 -0.609375 C 1.066406 -1.078125 0.828125 -1.6875 0.828125 -2.4375 C 0.828125 -3.1875 0.988281 -3.828125 1.3125 -4.359375 C 1.644531 -4.890625 2.054688 -5.285156 2.546875 -5.546875 C 3.046875 -5.804688 3.566406 -5.9375 4.109375 -5.9375 C 4.828125 -5.9375 5.382812 -5.722656 5.78125 -5.296875 C 6.1875 -4.867188 6.390625 -4.28125 6.390625 -3.53125 C 6.390625 -3.050781 6.304688 -2.8125 6.140625 -2.8125 Z M 5.453125 -3.734375 C 5.453125 -4.128906 5.332031 -4.460938 5.09375 -4.734375 C 4.863281 -5.015625 4.507812 -5.15625 4.03125 -5.15625 C 3.5625 -5.15625 3.140625 -5.019531 2.765625 -4.75 C 2.390625 -4.476562 2.128906 -4.070312 1.984375 -3.53125 L 5.4375 -3.53125 C 5.445312 -3.601562 5.453125 -3.671875 5.453125 -3.734375 Z M 5.453125 -3.734375 "/></g></g></g><g fill="#a67806" fill-opacity="0.4"><g transform="translate(221.43826, 189.189386)"><g><path d="M 3.078125 0.078125 C 2.546875 0.078125 2.132812 -0.0195312 1.84375 -0.21875 C 1.5625 -0.414062 1.390625 -0.597656 1.328125 -0.765625 L 1.3125 -0.765625 C 1.269531 -0.378906 1.25 -0.175781 1.25 -0.15625 C 1.226562 -0.0507812 1.164062 0 1.0625 0 L 0.65625 0 C 0.550781 0 0.503906 -0.0507812 0.515625 -0.15625 L 0.765625 -1.9375 C 0.785156 -2.039062 0.847656 -2.09375 0.953125 -2.09375 L 1.421875 -2.09375 C 1.523438 -2.09375 1.570312 -2.039062 1.5625 -1.9375 L 1.515625 -1.703125 C 1.523438 -1.679688 1.535156 -1.644531 1.546875 -1.59375 C 1.554688 -1.539062 1.597656 -1.457031 1.671875 -1.34375 C 1.742188 -1.226562 1.832031 -1.128906 1.9375 -1.046875 C 2.195312 -0.804688 2.5625 -0.6875 3.03125 -0.6875 C 3.507812 -0.6875 3.867188 -0.773438 4.109375 -0.953125 C 4.359375 -1.140625 4.484375 -1.382812 4.484375 -1.6875 C 4.484375 -1.882812 4.367188 -2.046875 4.140625 -2.171875 C 3.921875 -2.296875 3.648438 -2.394531 3.328125 -2.46875 C 3.015625 -2.539062 2.703125 -2.625 2.390625 -2.71875 C 2.078125 -2.820312 1.804688 -2.984375 1.578125 -3.203125 C 1.359375 -3.429688 1.25 -3.71875 1.25 -4.0625 C 1.25 -4.625 1.460938 -5.078125 1.890625 -5.421875 C 2.328125 -5.765625 2.863281 -5.9375 3.5 -5.9375 C 4.28125 -5.9375 4.804688 -5.707031 5.078125 -5.25 L 5.09375 -5.25 C 5.125 -5.5 5.140625 -5.628906 5.140625 -5.640625 C 5.148438 -5.773438 5.210938 -5.84375 5.328125 -5.84375 L 5.703125 -5.84375 C 5.804688 -5.84375 5.851562 -5.789062 5.84375 -5.6875 L 5.59375 -4.03125 C 5.582031 -3.925781 5.519531 -3.875 5.40625 -3.875 L 4.953125 -3.875 C 4.847656 -3.875 4.800781 -3.925781 4.8125 -4.03125 L 4.84375 -4.203125 C 4.84375 -4.234375 4.84375 -4.265625 4.84375 -4.296875 C 4.84375 -4.472656 4.738281 -4.660156 4.53125 -4.859375 C 4.320312 -5.054688 4.007812 -5.15625 3.59375 -5.15625 C 3.1875 -5.15625 2.851562 -5.0625 2.59375 -4.875 C 2.34375 -4.695312 2.21875 -4.453125 2.21875 -4.140625 C 2.21875 -3.785156 2.609375 -3.507812 3.390625 -3.3125 C 3.710938 -3.21875 4.035156 -3.117188 4.359375 -3.015625 C 4.679688 -2.921875 4.957031 -2.769531 5.1875 -2.5625 C 5.414062 -2.351562 5.53125 -2.085938 5.53125 -1.765625 C 5.53125 -1.253906 5.320312 -0.816406 4.90625 -0.453125 C 4.5 -0.0976562 3.890625 0.078125 3.078125 0.078125 Z M 3.078125 0.078125 "/></g></g></g><g fill="#a67806" fill-opacity="0.4"><g transform="translate(227.813681, 189.189386)"><g><path d="M 2.875 0 L 0.609375 0 C 0.503906 0 0.457031 -0.046875 0.46875 -0.140625 L 0.5625 -0.65625 C 0.570312 -0.75 0.625 -0.796875 0.71875 -0.796875 L 1.375 -0.796875 L 1.984375 -5.046875 L 1.3125 -5.046875 C 1.21875 -5.046875 1.175781 -5.097656 1.1875 -5.203125 L 1.265625 -5.703125 C 1.273438 -5.796875 1.328125 -5.84375 1.421875 -5.84375 L 2.921875 -5.84375 C 3.015625 -5.84375 3.0625 -5.796875 3.0625 -5.703125 L 2.359375 -0.796875 L 3 -0.796875 C 3.09375 -0.796875 3.132812 -0.75 3.125 -0.65625 L 3.0625 -0.140625 C 3.050781 -0.046875 2.988281 0 2.875 0 Z M 2.8125 -7.8125 C 3 -7.8125 3.144531 -7.753906 3.25 -7.640625 C 3.363281 -7.523438 3.421875 -7.375 3.421875 -7.1875 C 3.421875 -7.007812 3.34375 -6.847656 3.1875 -6.703125 C 3.03125 -6.554688 2.859375 -6.484375 2.671875 -6.484375 C 2.492188 -6.484375 2.347656 -6.535156 2.234375 -6.640625 C 2.128906 -6.753906 2.078125 -6.898438 2.078125 -7.078125 C 2.078125 -7.265625 2.148438 -7.429688 2.296875 -7.578125 C 2.453125 -7.734375 2.625 -7.8125 2.8125 -7.8125 Z M 2.8125 -7.8125 "/></g></g></g><g fill="#a67806" fill-opacity="0.4"><g transform="translate(231.89347, 189.189386)"><g><path d="M 6.6875 0 L 5.640625 0 C 5.460938 0 5.34375 -0.03125 5.28125 -0.09375 C 5.226562 -0.164062 5.203125 -0.238281 5.203125 -0.3125 C 5.203125 -0.382812 5.203125 -0.445312 5.203125 -0.5 L 5.296875 -1.171875 L 5.28125 -1.171875 C 5.101562 -0.835938 4.820312 -0.546875 4.4375 -0.296875 C 4.050781 -0.046875 3.609375 0.078125 3.109375 0.078125 C 2.410156 0.078125 1.851562 -0.148438 1.4375 -0.609375 C 1.03125 -1.066406 0.828125 -1.6875 0.828125 -2.46875 C 0.828125 -3.457031 1.125 -4.28125 1.71875 -4.9375 C 2.320312 -5.601562 3.078125 -5.9375 3.984375 -5.9375 C 4.460938 -5.9375 4.847656 -5.820312 5.140625 -5.59375 C 5.441406 -5.363281 5.644531 -5.085938 5.75 -4.765625 C 5.757812 -4.921875 5.773438 -5.050781 5.796875 -5.15625 L 6.15625 -7.734375 L 5.5 -7.734375 C 5.394531 -7.734375 5.347656 -7.785156 5.359375 -7.890625 L 5.4375 -8.390625 C 5.445312 -8.484375 5.5 -8.53125 5.59375 -8.53125 L 7.078125 -8.53125 C 7.179688 -8.53125 7.222656 -8.484375 7.203125 -8.390625 L 6.140625 -0.796875 L 6.796875 -0.796875 C 6.890625 -0.796875 6.9375 -0.75 6.9375 -0.65625 L 6.84375 -0.140625 C 6.832031 -0.046875 6.78125 0 6.6875 0 Z M 3.375 -0.75 C 3.96875 -0.75 4.472656 -0.984375 4.890625 -1.453125 C 5.316406 -1.929688 5.53125 -2.546875 5.53125 -3.296875 C 5.53125 -3.859375 5.382812 -4.296875 5.09375 -4.609375 C 4.800781 -4.929688 4.429688 -5.09375 3.984375 -5.09375 C 3.398438 -5.09375 2.890625 -4.859375 2.453125 -4.390625 C 2.023438 -3.929688 1.8125 -3.332031 1.8125 -2.59375 C 1.8125 -2.039062 1.953125 -1.59375 2.234375 -1.25 C 2.523438 -0.914062 2.90625 -0.75 3.375 -0.75 Z M 3.375 -0.75 "/></g></g></g><g fill="#a67806" fill-opacity="0.4"><g transform="translate(239.767591, 189.189386)"><g><path d="M 6.296875 0 L 5.25 0 C 4.945312 0 4.796875 -0.125 4.796875 -0.375 C 4.796875 -0.40625 4.800781 -0.445312 4.8125 -0.5 L 4.90625 -1.109375 L 4.875 -1.109375 C 4.195312 -0.304688 3.367188 0.09375 2.390625 0.09375 C 1.867188 0.09375 1.445312 -0.0351562 1.125 -0.296875 C 0.8125 -0.554688 0.65625 -0.910156 0.65625 -1.359375 C 0.65625 -2.066406 0.960938 -2.59375 1.578125 -2.9375 C 2.203125 -3.28125 3.050781 -3.453125 4.125 -3.453125 L 5.125 -3.453125 L 5.15625 -3.59375 C 5.175781 -3.71875 5.1875 -3.835938 5.1875 -3.953125 C 5.1875 -4.703125 4.726562 -5.078125 3.8125 -5.078125 C 3.320312 -5.078125 2.960938 -5.03125 2.734375 -4.9375 C 2.515625 -4.84375 2.351562 -4.769531 2.25 -4.71875 C 2.15625 -4.664062 2.082031 -4.617188 2.03125 -4.578125 C 1.976562 -4.546875 1.945312 -4.53125 1.9375 -4.53125 C 1.851562 -4.5 1.796875 -4.507812 1.765625 -4.5625 L 1.484375 -4.984375 C 1.441406 -5.046875 1.457031 -5.109375 1.53125 -5.171875 C 1.601562 -5.242188 1.703125 -5.320312 1.828125 -5.40625 C 1.960938 -5.5 2.234375 -5.609375 2.640625 -5.734375 C 3.046875 -5.867188 3.484375 -5.9375 3.953125 -5.9375 C 5.429688 -5.9375 6.171875 -5.320312 6.171875 -4.09375 C 6.171875 -3.925781 6.15625 -3.75 6.125 -3.5625 L 5.734375 -0.796875 L 6.40625 -0.796875 C 6.5 -0.796875 6.539062 -0.75 6.53125 -0.65625 L 6.453125 -0.140625 C 6.441406 -0.046875 6.390625 0 6.296875 0 Z M 4.078125 -2.734375 C 3.347656 -2.734375 2.828125 -2.675781 2.515625 -2.5625 C 2.210938 -2.457031 2 -2.328125 1.875 -2.171875 C 1.757812 -2.023438 1.703125 -1.828125 1.703125 -1.578125 C 1.703125 -1.335938 1.800781 -1.140625 2 -0.984375 C 2.195312 -0.828125 2.46875 -0.75 2.8125 -0.75 C 3.582031 -0.75 4.273438 -1.085938 4.890625 -1.765625 L 5.015625 -2.734375 Z M 4.078125 -2.734375 "/></g></g></g><g fill="#a67806" fill-opacity="0.4"><g transform="translate(247.261085, 189.189386)"><g><path d="M 6.6875 0 L 5.640625 0 C 5.460938 0 5.34375 -0.03125 5.28125 -0.09375 C 5.226562 -0.164062 5.203125 -0.238281 5.203125 -0.3125 C 5.203125 -0.382812 5.203125 -0.445312 5.203125 -0.5 L 5.296875 -1.171875 L 5.28125 -1.171875 C 5.101562 -0.835938 4.820312 -0.546875 4.4375 -0.296875 C 4.050781 -0.046875 3.609375 0.078125 3.109375 0.078125 C 2.410156 0.078125 1.851562 -0.148438 1.4375 -0.609375 C 1.03125 -1.066406 0.828125 -1.6875 0.828125 -2.46875 C 0.828125 -3.457031 1.125 -4.28125 1.71875 -4.9375 C 2.320312 -5.601562 3.078125 -5.9375 3.984375 -5.9375 C 4.460938 -5.9375 4.847656 -5.820312 5.140625 -5.59375 C 5.441406 -5.363281 5.644531 -5.085938 5.75 -4.765625 C 5.757812 -4.921875 5.773438 -5.050781 5.796875 -5.15625 L 6.15625 -7.734375 L 5.5 -7.734375 C 5.394531 -7.734375 5.347656 -7.785156 5.359375 -7.890625 L 5.4375 -8.390625 C 5.445312 -8.484375 5.5 -8.53125 5.59375 -8.53125 L 7.078125 -8.53125 C 7.179688 -8.53125 7.222656 -8.484375 7.203125 -8.390625 L 6.140625 -0.796875 L 6.796875 -0.796875 C 6.890625 -0.796875 6.9375 -0.75 6.9375 -0.65625 L 6.84375 -0.140625 C 6.832031 -0.046875 6.78125 0 6.6875 0 Z M 3.375 -0.75 C 3.96875 -0.75 4.472656 -0.984375 4.890625 -1.453125 C 5.316406 -1.929688 5.53125 -2.546875 5.53125 -3.296875 C 5.53125 -3.859375 5.382812 -4.296875 5.09375 -4.609375 C 4.800781 -4.929688 4.429688 -5.09375 3.984375 -5.09375 C 3.398438 -5.09375 2.890625 -4.859375 2.453125 -4.390625 C 2.023438 -3.929688 1.8125 -3.332031 1.8125 -2.59375 C 1.8125 -2.039062 1.953125 -1.59375 2.234375 -1.25 C 2.523438 -0.914062 2.90625 -0.75 3.375 -0.75 Z M 3.375 -0.75 "/></g></g></g><g fill="#ffb703" fill-opacity="1"><g transform="translate(100.624145, 188.663726)"><g><path d="M 1.390625 0 L 0.71875 0 C 0.625 0 0.582031 -0.046875 0.59375 -0.140625 L 0.984375 -2.921875 C 1.003906 -3.023438 1.0625 -3.078125 1.15625 -3.078125 L 1.90625 -3.078125 C 2.007812 -3.078125 2.050781 -3.023438 2.03125 -2.921875 L 2 -2.671875 C 1.976562 -2.535156 2.039062 -2.335938 2.1875 -2.078125 C 2.332031 -1.828125 2.484375 -1.617188 2.640625 -1.453125 C 2.804688 -1.296875 3.03125 -1.160156 3.3125 -1.046875 C 3.601562 -0.929688 3.929688 -0.875 4.296875 -0.875 C 4.960938 -0.875 5.488281 -1.015625 5.875 -1.296875 C 6.257812 -1.578125 6.453125 -1.96875 6.453125 -2.46875 C 6.453125 -2.90625 6.140625 -3.234375 5.515625 -3.453125 C 5.234375 -3.554688 4.921875 -3.648438 4.578125 -3.734375 C 4.242188 -3.816406 3.90625 -3.910156 3.5625 -4.015625 C 3.226562 -4.128906 2.921875 -4.265625 2.640625 -4.421875 C 2.359375 -4.578125 2.128906 -4.789062 1.953125 -5.0625 C 1.785156 -5.332031 1.703125 -5.65625 1.703125 -6.03125 C 1.703125 -6.757812 1.988281 -7.367188 2.5625 -7.859375 C 3.144531 -8.359375 3.898438 -8.609375 4.828125 -8.609375 C 5.910156 -8.609375 6.648438 -8.296875 7.046875 -7.671875 L 7.140625 -8.40625 C 7.148438 -8.5 7.203125 -8.546875 7.296875 -8.546875 L 7.984375 -8.546875 C 8.066406 -8.546875 8.101562 -8.5 8.09375 -8.40625 L 7.734375 -5.8125 C 7.710938 -5.71875 7.65625 -5.671875 7.5625 -5.671875 L 6.8125 -5.671875 C 6.726562 -5.671875 6.6875 -5.71875 6.6875 -5.8125 L 6.734375 -6.140625 C 6.742188 -6.179688 6.75 -6.21875 6.75 -6.25 C 6.75 -6.539062 6.597656 -6.84375 6.296875 -7.15625 C 6.003906 -7.476562 5.539062 -7.640625 4.90625 -7.640625 C 4.269531 -7.640625 3.765625 -7.5 3.390625 -7.21875 C 3.023438 -6.9375 2.84375 -6.601562 2.84375 -6.21875 C 2.84375 -5.832031 3.007812 -5.535156 3.34375 -5.328125 C 3.675781 -5.128906 4.078125 -4.972656 4.546875 -4.859375 C 5.023438 -4.742188 5.5 -4.613281 5.96875 -4.46875 C 6.445312 -4.320312 6.851562 -4.09375 7.1875 -3.78125 C 7.519531 -3.46875 7.6875 -3.0625 7.6875 -2.5625 C 7.6875 -1.832031 7.40625 -1.207031 6.84375 -0.6875 C 6.28125 -0.175781 5.453125 0.078125 4.359375 0.078125 C 3.628906 0.078125 3.046875 -0.0664062 2.609375 -0.359375 C 2.179688 -0.648438 1.882812 -0.96875 1.71875 -1.3125 L 1.5625 -0.140625 C 1.550781 -0.046875 1.492188 0 1.390625 0 Z M 1.390625 0 "/></g></g></g><g fill="#ffb703" fill-opacity="1"><g transform="translate(109.140561, 188.663726)"><g><path d="M 6.140625 -2.8125 L 1.859375 -2.8125 C 1.859375 -2.707031 1.859375 -2.601562 1.859375 -2.5 C 1.859375 -1.988281 2.007812 -1.566406 2.3125 -1.234375 C 2.613281 -0.910156 3.003906 -0.75 3.484375 -0.75 C 3.972656 -0.75 4.398438 -0.851562 4.765625 -1.0625 C 5.140625 -1.269531 5.40625 -1.472656 5.5625 -1.671875 C 5.632812 -1.742188 5.707031 -1.753906 5.78125 -1.703125 L 6.0625 -1.375 C 6.132812 -1.300781 6.140625 -1.222656 6.078125 -1.140625 C 6.015625 -1.066406 5.914062 -0.96875 5.78125 -0.84375 C 5.65625 -0.726562 5.476562 -0.597656 5.25 -0.453125 C 4.71875 -0.0976562 4.085938 0.078125 3.359375 0.078125 C 2.628906 0.078125 2.023438 -0.148438 1.546875 -0.609375 C 1.066406 -1.078125 0.828125 -1.6875 0.828125 -2.4375 C 0.828125 -3.1875 0.988281 -3.828125 1.3125 -4.359375 C 1.644531 -4.890625 2.054688 -5.285156 2.546875 -5.546875 C 3.046875 -5.804688 3.566406 -5.9375 4.109375 -5.9375 C 4.828125 -5.9375 5.382812 -5.722656 5.78125 -5.296875 C 6.1875 -4.867188 6.390625 -4.28125 6.390625 -3.53125 C 6.390625 -3.050781 6.304688 -2.8125 6.140625 -2.8125 Z M 5.453125 -3.734375 C 5.453125 -4.128906 5.332031 -4.460938 5.09375 -4.734375 C 4.863281 -5.015625 4.507812 -5.15625 4.03125 -5.15625 C 3.5625 -5.15625 3.140625 -5.019531 2.765625 -4.75 C 2.390625 -4.476562 2.128906 -4.070312 1.984375 -3.53125 L 5.4375 -3.53125 C 5.445312 -3.601562 5.453125 -3.671875 5.453125 -3.734375 Z M 5.453125 -3.734375 "/></g></g></g><g fill="#ffb703" fill-opacity="1"><g transform="translate(116.13449, 188.663726)"><g><path d="M 2.875 0 L 0.609375 0 C 0.503906 0 0.457031 -0.046875 0.46875 -0.140625 L 0.5625 -0.65625 C 0.570312 -0.75 0.625 -0.796875 0.71875 -0.796875 L 1.375 -0.796875 L 1.984375 -5.046875 L 1.3125 -5.046875 C 1.21875 -5.046875 1.175781 -5.097656 1.1875 -5.203125 L 1.265625 -5.703125 C 1.273438 -5.796875 1.328125 -5.84375 1.421875 -5.84375 L 2.828125 -5.84375 C 2.929688 -5.84375 2.972656 -5.796875 2.953125 -5.703125 L 2.75 -4.21875 L 2.78125 -4.21875 C 2.832031 -4.351562 2.941406 -4.53125 3.109375 -4.75 C 3.273438 -4.96875 3.453125 -5.148438 3.640625 -5.296875 C 3.835938 -5.441406 4.101562 -5.570312 4.4375 -5.6875 C 4.78125 -5.8125 5.15625 -5.875 5.5625 -5.875 C 5.664062 -5.875 5.710938 -5.820312 5.703125 -5.71875 L 5.59375 -5.09375 C 5.582031 -4.988281 5.53125 -4.9375 5.4375 -4.9375 L 5.1875 -4.9375 C 4.5 -4.9375 3.921875 -4.71875 3.453125 -4.28125 C 2.992188 -3.84375 2.722656 -3.347656 2.640625 -2.796875 L 2.359375 -0.796875 L 3 -0.796875 C 3.09375 -0.796875 3.132812 -0.75 3.125 -0.65625 L 3.0625 -0.140625 C 3.050781 -0.046875 2.988281 0 2.875 0 Z M 2.875 0 "/></g></g></g><g fill="#ffb703" fill-opacity="1"><g transform="translate(121.736765, 188.663726)"><g><path d="M 3.875 0 L 3.078125 0 C 2.992188 0 2.9375 -0.0078125 2.90625 -0.03125 C 2.875 -0.0625 2.851562 -0.125 2.84375 -0.21875 L 1.640625 -5.046875 L 0.96875 -5.046875 C 0.875 -5.046875 0.832031 -5.097656 0.84375 -5.203125 L 0.921875 -5.703125 C 0.941406 -5.796875 0.992188 -5.84375 1.078125 -5.84375 L 3.296875 -5.84375 C 3.378906 -5.84375 3.414062 -5.796875 3.40625 -5.703125 L 3.359375 -5.203125 C 3.335938 -5.097656 3.273438 -5.046875 3.171875 -5.046875 L 2.65625 -5.046875 L 3.609375 -1.046875 L 3.640625 -1.046875 L 5.75 -5.046875 L 5.203125 -5.046875 C 5.109375 -5.046875 5.070312 -5.097656 5.09375 -5.203125 L 5.15625 -5.703125 C 5.175781 -5.796875 5.234375 -5.84375 5.328125 -5.84375 L 7.53125 -5.84375 C 7.632812 -5.84375 7.679688 -5.796875 7.671875 -5.703125 L 7.59375 -5.203125 C 7.59375 -5.097656 7.539062 -5.046875 7.4375 -5.046875 L 6.765625 -5.046875 L 4.1875 -0.21875 C 4.101562 -0.0703125 4 0 3.875 0 Z M 3.875 0 "/></g></g></g><g fill="#ffb703" fill-opacity="1"><g transform="translate(129.325416, 188.663726)"><g><path d="M 2.875 0 L 0.609375 0 C 0.503906 0 0.457031 -0.046875 0.46875 -0.140625 L 0.5625 -0.65625 C 0.570312 -0.75 0.625 -0.796875 0.71875 -0.796875 L 1.375 -0.796875 L 1.984375 -5.046875 L 1.3125 -5.046875 C 1.21875 -5.046875 1.175781 -5.097656 1.1875 -5.203125 L 1.265625 -5.703125 C 1.273438 -5.796875 1.328125 -5.84375 1.421875 -5.84375 L 2.921875 -5.84375 C 3.015625 -5.84375 3.0625 -5.796875 3.0625 -5.703125 L 2.359375 -0.796875 L 3 -0.796875 C 3.09375 -0.796875 3.132812 -0.75 3.125 -0.65625 L 3.0625 -0.140625 C 3.050781 -0.046875 2.988281 0 2.875 0 Z M 2.8125 -7.8125 C 3 -7.8125 3.144531 -7.753906 3.25 -7.640625 C 3.363281 -7.523438 3.421875 -7.375 3.421875 -7.1875 C 3.421875 -7.007812 3.34375 -6.847656 3.1875 -6.703125 C 3.03125 -6.554688 2.859375 -6.484375 2.671875 -6.484375 C 2.492188 -6.484375 2.347656 -6.535156 2.234375 -6.640625 C 2.128906 -6.753906 2.078125 -6.898438 2.078125 -7.078125 C 2.078125 -7.265625 2.148438 -7.429688 2.296875 -7.578125 C 2.453125 -7.734375 2.625 -7.8125 2.8125 -7.8125 Z M 2.8125 -7.8125 "/></g></g></g><g fill="#ffb703" fill-opacity="1"><g transform="translate(133.405202, 188.663726)"><g><path d="M 3.375 0.078125 C 2.625 0.078125 2.007812 -0.148438 1.53125 -0.609375 C 1.0625 -1.078125 0.828125 -1.710938 0.828125 -2.515625 C 0.828125 -3.546875 1.160156 -4.375 1.828125 -5 C 2.492188 -5.625 3.253906 -5.9375 4.109375 -5.9375 C 4.960938 -5.9375 5.554688 -5.640625 5.890625 -5.046875 L 5.984375 -5.703125 C 5.992188 -5.804688 6.046875 -5.859375 6.140625 -5.859375 L 6.59375 -5.859375 C 6.695312 -5.859375 6.742188 -5.804688 6.734375 -5.703125 L 6.4375 -3.6875 C 6.425781 -3.59375 6.375 -3.546875 6.28125 -3.546875 L 5.75 -3.546875 C 5.644531 -3.546875 5.597656 -3.59375 5.609375 -3.6875 L 5.640625 -3.890625 C 5.640625 -3.921875 5.640625 -3.957031 5.640625 -4 C 5.640625 -4.238281 5.503906 -4.476562 5.234375 -4.71875 C 4.972656 -4.96875 4.582031 -5.09375 4.0625 -5.09375 C 3.550781 -5.09375 3.050781 -4.867188 2.5625 -4.421875 C 2.082031 -3.972656 1.84375 -3.375 1.84375 -2.625 C 1.84375 -2.050781 2.007812 -1.59375 2.34375 -1.25 C 2.675781 -0.914062 3.0625 -0.75 3.5 -0.75 C 3.945312 -0.75 4.367188 -0.859375 4.765625 -1.078125 C 5.160156 -1.296875 5.425781 -1.492188 5.5625 -1.671875 C 5.632812 -1.765625 5.707031 -1.78125 5.78125 -1.71875 L 6.0625 -1.375 C 6.132812 -1.300781 6.132812 -1.222656 6.0625 -1.140625 C 6 -1.054688 5.90625 -0.957031 5.78125 -0.84375 C 5.664062 -0.726562 5.5 -0.597656 5.28125 -0.453125 C 4.769531 -0.0976562 4.132812 0.078125 3.375 0.078125 Z M 3.375 0.078125 "/></g></g></g><g fill="#ffb703" fill-opacity="1"><g transform="translate(140.411029, 188.663726)"><g><path d="M 2.875 0 L 0.609375 0 C 0.503906 0 0.457031 -0.046875 0.46875 -0.140625 L 0.5625 -0.65625 C 0.570312 -0.75 0.625 -0.796875 0.71875 -0.796875 L 1.375 -0.796875 L 1.984375 -5.046875 L 1.3125 -5.046875 C 1.21875 -5.046875 1.175781 -5.097656 1.1875 -5.203125 L 1.265625 -5.703125 C 1.273438 -5.796875 1.328125 -5.84375 1.421875 -5.84375 L 2.921875 -5.84375 C 3.015625 -5.84375 3.0625 -5.796875 3.0625 -5.703125 L 2.359375 -0.796875 L 3 -0.796875 C 3.09375 -0.796875 3.132812 -0.75 3.125 -0.65625 L 3.0625 -0.140625 C 3.050781 -0.046875 2.988281 0 2.875 0 Z M 2.8125 -7.8125 C 3 -7.8125 3.144531 -7.753906 3.25 -7.640625 C 3.363281 -7.523438 3.421875 -7.375 3.421875 -7.1875 C 3.421875 -7.007812 3.34375 -6.847656 3.1875 -6.703125 C 3.03125 -6.554688 2.859375 -6.484375 2.671875 -6.484375 C 2.492188 -6.484375 2.347656 -6.535156 2.234375 -6.640625 C 2.128906 -6.753906 2.078125 -6.898438 2.078125 -7.078125 C 2.078125 -7.265625 2.148438 -7.429688 2.296875 -7.578125 C 2.453125 -7.734375 2.625 -7.8125 2.8125 -7.8125 Z M 2.8125 -7.8125 "/></g></g></g><g fill="#ffb703" fill-opacity="1"><g transform="translate(144.490815, 188.663726)"><g><path d="M 3.40625 0.078125 C 2.644531 0.078125 2.023438 -0.15625 1.546875 -0.625 C 1.066406 -1.09375 0.828125 -1.722656 0.828125 -2.515625 C 0.828125 -3.546875 1.160156 -4.375 1.828125 -5 C 2.503906 -5.625 3.3125 -5.9375 4.25 -5.9375 C 5.007812 -5.9375 5.628906 -5.703125 6.109375 -5.234375 C 6.585938 -4.773438 6.828125 -4.148438 6.828125 -3.359375 C 6.828125 -2.347656 6.492188 -1.519531 5.828125 -0.875 C 5.171875 -0.238281 4.363281 0.078125 3.40625 0.078125 Z M 1.828125 -2.609375 C 1.828125 -2.046875 1.988281 -1.59375 2.3125 -1.25 C 2.632812 -0.914062 3.066406 -0.75 3.609375 -0.75 C 4.148438 -0.75 4.65625 -0.984375 5.125 -1.453125 C 5.59375 -1.929688 5.828125 -2.535156 5.828125 -3.265625 C 5.828125 -3.816406 5.660156 -4.257812 5.328125 -4.59375 C 5.003906 -4.925781 4.609375 -5.09375 4.140625 -5.09375 C 3.535156 -5.09375 3 -4.859375 2.53125 -4.390625 C 2.0625 -3.929688 1.828125 -3.335938 1.828125 -2.609375 Z M 1.828125 -2.609375 "/></g></g></g><g fill="#ffb703" fill-opacity="1"><g transform="translate(151.924835, 188.663726)"><g><path d="M 3.078125 0.078125 C 2.546875 0.078125 2.132812 -0.0195312 1.84375 -0.21875 C 1.5625 -0.414062 1.390625 -0.597656 1.328125 -0.765625 L 1.3125 -0.765625 C 1.269531 -0.378906 1.25 -0.175781 1.25 -0.15625 C 1.226562 -0.0507812 1.164062 0 1.0625 0 L 0.65625 0 C 0.550781 0 0.503906 -0.0507812 0.515625 -0.15625 L 0.765625 -1.9375 C 0.785156 -2.039062 0.847656 -2.09375 0.953125 -2.09375 L 1.421875 -2.09375 C 1.523438 -2.09375 1.570312 -2.039062 1.5625 -1.9375 L 1.515625 -1.703125 C 1.523438 -1.679688 1.535156 -1.644531 1.546875 -1.59375 C 1.554688 -1.539062 1.597656 -1.457031 1.671875 -1.34375 C 1.742188 -1.226562 1.832031 -1.128906 1.9375 -1.046875 C 2.195312 -0.804688 2.5625 -0.6875 3.03125 -0.6875 C 3.507812 -0.6875 3.867188 -0.773438 4.109375 -0.953125 C 4.359375 -1.140625 4.484375 -1.382812 4.484375 -1.6875 C 4.484375 -1.882812 4.367188 -2.046875 4.140625 -2.171875 C 3.921875 -2.296875 3.648438 -2.394531 3.328125 -2.46875 C 3.015625 -2.539062 2.703125 -2.625 2.390625 -2.71875 C 2.078125 -2.820312 1.804688 -2.984375 1.578125 -3.203125 C 1.359375 -3.429688 1.25 -3.71875 1.25 -4.0625 C 1.25 -4.625 1.460938 -5.078125 1.890625 -5.421875 C 2.328125 -5.765625 2.863281 -5.9375 3.5 -5.9375 C 4.28125 -5.9375 4.804688 -5.707031 5.078125 -5.25 L 5.09375 -5.25 C 5.125 -5.5 5.140625 -5.628906 5.140625 -5.640625 C 5.148438 -5.773438 5.210938 -5.84375 5.328125 -5.84375 L 5.703125 -5.84375 C 5.804688 -5.84375 5.851562 -5.789062 5.84375 -5.6875 L 5.59375 -4.03125 C 5.582031 -3.925781 5.519531 -3.875 5.40625 -3.875 L 4.953125 -3.875 C 4.847656 -3.875 4.800781 -3.925781 4.8125 -4.03125 L 4.84375 -4.203125 C 4.84375 -4.234375 4.84375 -4.265625 4.84375 -4.296875 C 4.84375 -4.472656 4.738281 -4.660156 4.53125 -4.859375 C 4.320312 -5.054688 4.007812 -5.15625 3.59375 -5.15625 C 3.1875 -5.15625 2.851562 -5.0625 2.59375 -4.875 C 2.34375 -4.695312 2.21875 -4.453125 2.21875 -4.140625 C 2.21875 -3.785156 2.609375 -3.507812 3.390625 -3.3125 C 3.710938 -3.21875 4.035156 -3.117188 4.359375 -3.015625 C 4.679688 -2.921875 4.957031 -2.769531 5.1875 -2.5625 C 5.414062 -2.351562 5.53125 -2.085938 5.53125 -1.765625 C 5.53125 -1.253906 5.320312 -0.816406 4.90625 -0.453125 C 4.5 -0.0976562 3.890625 0.078125 3.078125 0.078125 Z M 3.078125 0.078125 "/></g></g></g><g fill="#ffb703" fill-opacity="1"><g transform="translate(158.300256, 188.663726)"><g/></g></g><g fill="#ffb703" fill-opacity="1"><g transform="translate(162.617938, 188.663726)"><g><path d="M 6.296875 0 L 5.25 0 C 4.945312 0 4.796875 -0.125 4.796875 -0.375 C 4.796875 -0.40625 4.800781 -0.445312 4.8125 -0.5 L 4.90625 -1.109375 L 4.875 -1.109375 C 4.195312 -0.304688 3.367188 0.09375 2.390625 0.09375 C 1.867188 0.09375 1.445312 -0.0351562 1.125 -0.296875 C 0.8125 -0.554688 0.65625 -0.910156 0.65625 -1.359375 C 0.65625 -2.066406 0.960938 -2.59375 1.578125 -2.9375 C 2.203125 -3.28125 3.050781 -3.453125 4.125 -3.453125 L 5.125 -3.453125 L 5.15625 -3.59375 C 5.175781 -3.71875 5.1875 -3.835938 5.1875 -3.953125 C 5.1875 -4.703125 4.726562 -5.078125 3.8125 -5.078125 C 3.320312 -5.078125 2.960938 -5.03125 2.734375 -4.9375 C 2.515625 -4.84375 2.351562 -4.769531 2.25 -4.71875 C 2.15625 -4.664062 2.082031 -4.617188 2.03125 -4.578125 C 1.976562 -4.546875 1.945312 -4.53125 1.9375 -4.53125 C 1.851562 -4.5 1.796875 -4.507812 1.765625 -4.5625 L 1.484375 -4.984375 C 1.441406 -5.046875 1.457031 -5.109375 1.53125 -5.171875 C 1.601562 -5.242188 1.703125 -5.320312 1.828125 -5.40625 C 1.960938 -5.5 2.234375 -5.609375 2.640625 -5.734375 C 3.046875 -5.867188 3.484375 -5.9375 3.953125 -5.9375 C 5.429688 -5.9375 6.171875 -5.320312 6.171875 -4.09375 C 6.171875 -3.925781 6.15625 -3.75 6.125 -3.5625 L 5.734375 -0.796875 L 6.40625 -0.796875 C 6.5 -0.796875 6.539062 -0.75 6.53125 -0.65625 L 6.453125 -0.140625 C 6.441406 -0.046875 6.390625 0 6.296875 0 Z M 4.078125 -2.734375 C 3.347656 -2.734375 2.828125 -2.675781 2.515625 -2.5625 C 2.210938 -2.457031 2 -2.328125 1.875 -2.171875 C 1.757812 -2.023438 1.703125 -1.828125 1.703125 -1.578125 C 1.703125 -1.335938 1.800781 -1.140625 2 -0.984375 C 2.195312 -0.828125 2.46875 -0.75 2.8125 -0.75 C 3.582031 -0.75 4.273438 -1.085938 4.890625 -1.765625 L 5.015625 -2.734375 Z M 4.078125 -2.734375 "/></g></g></g><g fill="#ffb703" fill-opacity="1"><g transform="translate(170.111432, 188.663726)"><g/></g></g><g fill="#ffb703" fill-opacity="1"><g transform="translate(174.429115, 188.663726)"><g><path d="M 3.1875 0.078125 C 2.582031 0.078125 2.140625 -0.0859375 1.859375 -0.421875 C 1.628906 -0.691406 1.515625 -1.039062 1.515625 -1.46875 C 1.515625 -1.613281 1.53125 -1.769531 1.5625 -1.9375 L 2 -5.046875 L 1.3125 -5.046875 C 1.207031 -5.046875 1.160156 -5.097656 1.171875 -5.203125 L 1.25 -5.703125 C 1.257812 -5.796875 1.320312 -5.84375 1.4375 -5.84375 L 2.109375 -5.84375 L 2.265625 -7.046875 C 2.285156 -7.160156 2.351562 -7.21875 2.46875 -7.21875 L 3.125 -7.21875 C 3.238281 -7.21875 3.285156 -7.160156 3.265625 -7.046875 L 3.09375 -5.84375 L 4.609375 -5.84375 C 4.703125 -5.84375 4.75 -5.8125 4.75 -5.75 C 4.75 -5.726562 4.742188 -5.710938 4.734375 -5.703125 L 4.671875 -5.203125 C 4.660156 -5.097656 4.597656 -5.046875 4.484375 -5.046875 L 2.984375 -5.046875 L 2.5625 -1.96875 C 2.539062 -1.84375 2.53125 -1.726562 2.53125 -1.625 C 2.53125 -1.050781 2.816406 -0.765625 3.390625 -0.765625 C 3.628906 -0.765625 3.851562 -0.847656 4.0625 -1.015625 C 4.164062 -1.035156 4.238281 -1.019531 4.28125 -0.96875 L 4.515625 -0.609375 C 4.566406 -0.535156 4.546875 -0.457031 4.453125 -0.375 C 4.054688 -0.0703125 3.632812 0.078125 3.1875 0.078125 Z M 3.1875 0.078125 "/></g></g></g><g fill="#ffb703" fill-opacity="1"><g transform="translate(179.793509, 188.663726)"><g><path d="M 2.40625 -5.84375 C 2.707031 -5.84375 2.859375 -5.71875 2.859375 -5.46875 C 2.859375 -5.4375 2.859375 -5.394531 2.859375 -5.34375 L 2.40625 -2.21875 C 2.382812 -2.113281 2.375 -2.007812 2.375 -1.90625 C 2.375 -1.601562 2.445312 -1.359375 2.59375 -1.171875 C 2.769531 -0.898438 3.054688 -0.765625 3.453125 -0.765625 C 3.703125 -0.765625 3.9375 -0.828125 4.15625 -0.953125 C 4.382812 -1.085938 4.566406 -1.238281 4.703125 -1.40625 C 4.835938 -1.582031 4.957031 -1.765625 5.0625 -1.953125 C 5.25 -2.296875 5.34375 -2.515625 5.34375 -2.609375 L 5.6875 -5.046875 L 5.046875 -5.046875 C 4.953125 -5.046875 4.910156 -5.097656 4.921875 -5.203125 L 5 -5.703125 C 5.007812 -5.796875 5.0625 -5.84375 5.15625 -5.84375 L 6.640625 -5.84375 C 6.734375 -5.84375 6.773438 -5.796875 6.765625 -5.703125 L 6.078125 -0.796875 L 6.734375 -0.796875 C 6.828125 -0.796875 6.867188 -0.75 6.859375 -0.65625 L 6.796875 -0.140625 C 6.785156 -0.046875 6.726562 0 6.625 0 L 5.59375 0 C 5.28125 0 5.125 -0.125 5.125 -0.375 C 5.125 -0.40625 5.128906 -0.445312 5.140625 -0.5 L 5.3125 -1.578125 L 5.28125 -1.578125 C 5.257812 -1.460938 5.179688 -1.289062 5.046875 -1.0625 C 4.921875 -0.832031 4.785156 -0.644531 4.640625 -0.5 C 4.503906 -0.351562 4.304688 -0.21875 4.046875 -0.09375 C 3.785156 0.0195312 3.492188 0.078125 3.171875 0.078125 C 2.535156 0.078125 2.0625 -0.101562 1.75 -0.46875 C 1.5 -0.769531 1.375 -1.144531 1.375 -1.59375 C 1.375 -1.71875 1.382812 -1.847656 1.40625 -1.984375 L 1.8125 -5.046875 L 1.15625 -5.046875 C 1.050781 -5.046875 1.003906 -5.097656 1.015625 -5.203125 L 1.109375 -5.703125 C 1.117188 -5.796875 1.171875 -5.84375 1.265625 -5.84375 Z M 2.40625 -5.84375 "/></g></g></g><g fill="#ffb703" fill-opacity="1"><g transform="translate(187.620057, 188.663726)"><g/></g></g><g fill="#ffb703" fill-opacity="1"><g transform="translate(191.937739, 188.663726)"><g><path d="M 6.78125 0 L 5.640625 0 C 5.347656 0 5.203125 -0.125 5.203125 -0.375 C 5.203125 -0.40625 5.203125 -0.445312 5.203125 -0.5 L 5.640625 -3.625 C 5.648438 -3.75 5.65625 -3.859375 5.65625 -3.953125 C 5.65625 -4.253906 5.585938 -4.5 5.453125 -4.6875 C 5.273438 -4.945312 4.988281 -5.078125 4.59375 -5.078125 C 4.320312 -5.078125 4.0625 -4.992188 3.8125 -4.828125 C 3.570312 -4.671875 3.375 -4.472656 3.21875 -4.234375 C 2.976562 -3.878906 2.8125 -3.566406 2.71875 -3.296875 L 2.359375 -0.796875 L 3 -0.796875 C 3.09375 -0.796875 3.132812 -0.75 3.125 -0.65625 L 3.0625 -0.140625 C 3.050781 -0.046875 2.988281 0 2.875 0 L 0.609375 0 C 0.503906 0 0.457031 -0.046875 0.46875 -0.140625 L 0.5625 -0.65625 C 0.570312 -0.75 0.625 -0.796875 0.71875 -0.796875 L 1.375 -0.796875 L 1.984375 -5.046875 L 1.3125 -5.046875 C 1.21875 -5.046875 1.175781 -5.097656 1.1875 -5.203125 L 1.265625 -5.703125 C 1.273438 -5.796875 1.328125 -5.84375 1.421875 -5.84375 L 2.828125 -5.84375 C 2.921875 -5.84375 2.960938 -5.796875 2.953125 -5.703125 L 2.734375 -4.28125 L 2.765625 -4.28125 C 2.785156 -4.394531 2.863281 -4.566406 3 -4.796875 C 3.132812 -5.023438 3.273438 -5.210938 3.421875 -5.359375 C 3.566406 -5.503906 3.769531 -5.632812 4.03125 -5.75 C 4.300781 -5.875 4.597656 -5.9375 4.921875 -5.9375 C 5.554688 -5.9375 6.023438 -5.75 6.328125 -5.375 C 6.566406 -5.082031 6.6875 -4.710938 6.6875 -4.265625 C 6.6875 -4.140625 6.675781 -4.003906 6.65625 -3.859375 L 6.234375 -0.796875 L 6.890625 -0.796875 C 6.992188 -0.796875 7.039062 -0.75 7.03125 -0.65625 L 6.953125 -0.140625 C 6.941406 -0.046875 6.882812 0 6.78125 0 Z M 6.78125 0 "/></g></g></g><g fill="#ffb703" fill-opacity="1"><g transform="translate(199.918903, 188.663726)"><g><path d="M 6.140625 -2.8125 L 1.859375 -2.8125 C 1.859375 -2.707031 1.859375 -2.601562 1.859375 -2.5 C 1.859375 -1.988281 2.007812 -1.566406 2.3125 -1.234375 C 2.613281 -0.910156 3.003906 -0.75 3.484375 -0.75 C 3.972656 -0.75 4.398438 -0.851562 4.765625 -1.0625 C 5.140625 -1.269531 5.40625 -1.472656 5.5625 -1.671875 C 5.632812 -1.742188 5.707031 -1.753906 5.78125 -1.703125 L 6.0625 -1.375 C 6.132812 -1.300781 6.140625 -1.222656 6.078125 -1.140625 C 6.015625 -1.066406 5.914062 -0.96875 5.78125 -0.84375 C 5.65625 -0.726562 5.476562 -0.597656 5.25 -0.453125 C 4.71875 -0.0976562 4.085938 0.078125 3.359375 0.078125 C 2.628906 0.078125 2.023438 -0.148438 1.546875 -0.609375 C 1.066406 -1.078125 0.828125 -1.6875 0.828125 -2.4375 C 0.828125 -3.1875 0.988281 -3.828125 1.3125 -4.359375 C 1.644531 -4.890625 2.054688 -5.285156 2.546875 -5.546875 C 3.046875 -5.804688 3.566406 -5.9375 4.109375 -5.9375 C 4.828125 -5.9375 5.382812 -5.722656 5.78125 -5.296875 C 6.1875 -4.867188 6.390625 -4.28125 6.390625 -3.53125 C 6.390625 -3.050781 6.304688 -2.8125 6.140625 -2.8125 Z M 5.453125 -3.734375 C 5.453125 -4.128906 5.332031 -4.460938 5.09375 -4.734375 C 4.863281 -5.015625 4.507812 -5.15625 4.03125 -5.15625 C 3.5625 -5.15625 3.140625 -5.019531 2.765625 -4.75 C 2.390625 -4.476562 2.128906 -4.070312 1.984375 -3.53125 L 5.4375 -3.53125 C 5.445312 -3.601562 5.453125 -3.671875 5.453125 -3.734375 Z M 5.453125 -3.734375 "/></g></g></g><g fill="#ffb703" fill-opacity="1"><g transform="translate(206.912833, 188.663726)"><g><path d="M 3.375 0.078125 C 2.625 0.078125 2.007812 -0.148438 1.53125 -0.609375 C 1.0625 -1.078125 0.828125 -1.710938 0.828125 -2.515625 C 0.828125 -3.546875 1.160156 -4.375 1.828125 -5 C 2.492188 -5.625 3.253906 -5.9375 4.109375 -5.9375 C 4.960938 -5.9375 5.554688 -5.640625 5.890625 -5.046875 L 5.984375 -5.703125 C 5.992188 -5.804688 6.046875 -5.859375 6.140625 -5.859375 L 6.59375 -5.859375 C 6.695312 -5.859375 6.742188 -5.804688 6.734375 -5.703125 L 6.4375 -3.6875 C 6.425781 -3.59375 6.375 -3.546875 6.28125 -3.546875 L 5.75 -3.546875 C 5.644531 -3.546875 5.597656 -3.59375 5.609375 -3.6875 L 5.640625 -3.890625 C 5.640625 -3.921875 5.640625 -3.957031 5.640625 -4 C 5.640625 -4.238281 5.503906 -4.476562 5.234375 -4.71875 C 4.972656 -4.96875 4.582031 -5.09375 4.0625 -5.09375 C 3.550781 -5.09375 3.050781 -4.867188 2.5625 -4.421875 C 2.082031 -3.972656 1.84375 -3.375 1.84375 -2.625 C 1.84375 -2.050781 2.007812 -1.59375 2.34375 -1.25 C 2.675781 -0.914062 3.0625 -0.75 3.5 -0.75 C 3.945312 -0.75 4.367188 -0.859375 4.765625 -1.078125 C 5.160156 -1.296875 5.425781 -1.492188 5.5625 -1.671875 C 5.632812 -1.765625 5.707031 -1.78125 5.78125 -1.71875 L 6.0625 -1.375 C 6.132812 -1.300781 6.132812 -1.222656 6.0625 -1.140625 C 6 -1.054688 5.90625 -0.957031 5.78125 -0.84375 C 5.664062 -0.726562 5.5 -0.597656 5.28125 -0.453125 C 4.769531 -0.0976562 4.132812 0.078125 3.375 0.078125 Z M 3.375 0.078125 "/></g></g></g><g fill="#ffb703" fill-opacity="1"><g transform="translate(213.918663, 188.663726)"><g><path d="M 6.140625 -2.8125 L 1.859375 -2.8125 C 1.859375 -2.707031 1.859375 -2.601562 1.859375 -2.5 C 1.859375 -1.988281 2.007812 -1.566406 2.3125 -1.234375 C 2.613281 -0.910156 3.003906 -0.75 3.484375 -0.75 C 3.972656 -0.75 4.398438 -0.851562 4.765625 -1.0625 C 5.140625 -1.269531 5.40625 -1.472656 5.5625 -1.671875 C 5.632812 -1.742188 5.707031 -1.753906 5.78125 -1.703125 L 6.0625 -1.375 C 6.132812 -1.300781 6.140625 -1.222656 6.078125 -1.140625 C 6.015625 -1.066406 5.914062 -0.96875 5.78125 -0.84375 C 5.65625 -0.726562 5.476562 -0.597656 5.25 -0.453125 C 4.71875 -0.0976562 4.085938 0.078125 3.359375 0.078125 C 2.628906 0.078125 2.023438 -0.148438 1.546875 -0.609375 C 1.066406 -1.078125 0.828125 -1.6875 0.828125 -2.4375 C 0.828125 -3.1875 0.988281 -3.828125 1.3125 -4.359375 C 1.644531 -4.890625 2.054688 -5.285156 2.546875 -5.546875 C 3.046875 -5.804688 3.566406 -5.9375 4.109375 -5.9375 C 4.828125 -5.9375 5.382812 -5.722656 5.78125 -5.296875 C 6.1875 -4.867188 6.390625 -4.28125 6.390625 -3.53125 C 6.390625 -3.050781 6.304688 -2.8125 6.140625 -2.8125 Z M 5.453125 -3.734375 C 5.453125 -4.128906 5.332031 -4.460938 5.09375 -4.734375 C 4.863281 -5.015625 4.507812 -5.15625 4.03125 -5.15625 C 3.5625 -5.15625 3.140625 -5.019531 2.765625 -4.75 C 2.390625 -4.476562 2.128906 -4.070312 1.984375 -3.53125 L 5.4375 -3.53125 C 5.445312 -3.601562 5.453125 -3.671875 5.453125 -3.734375 Z M 5.453125 -3.734375 "/></g></g></g><g fill="#ffb703" fill-opacity="1"><g transform="translate(220.912593, 188.663726)"><g><path d="M 3.078125 0.078125 C 2.546875 0.078125 2.132812 -0.0195312 1.84375 -0.21875 C 1.5625 -0.414062 1.390625 -0.597656 1.328125 -0.765625 L 1.3125 -0.765625 C 1.269531 -0.378906 1.25 -0.175781 1.25 -0.15625 C 1.226562 -0.0507812 1.164062 0 1.0625 0 L 0.65625 0 C 0.550781 0 0.503906 -0.0507812 0.515625 -0.15625 L 0.765625 -1.9375 C 0.785156 -2.039062 0.847656 -2.09375 0.953125 -2.09375 L 1.421875 -2.09375 C 1.523438 -2.09375 1.570312 -2.039062 1.5625 -1.9375 L 1.515625 -1.703125 C 1.523438 -1.679688 1.535156 -1.644531 1.546875 -1.59375 C 1.554688 -1.539062 1.597656 -1.457031 1.671875 -1.34375 C 1.742188 -1.226562 1.832031 -1.128906 1.9375 -1.046875 C 2.195312 -0.804688 2.5625 -0.6875 3.03125 -0.6875 C 3.507812 -0.6875 3.867188 -0.773438 4.109375 -0.953125 C 4.359375 -1.140625 4.484375 -1.382812 4.484375 -1.6875 C 4.484375 -1.882812 4.367188 -2.046875 4.140625 -2.171875 C 3.921875 -2.296875 3.648438 -2.394531 3.328125 -2.46875 C 3.015625 -2.539062 2.703125 -2.625 2.390625 -2.71875 C 2.078125 -2.820312 1.804688 -2.984375 1.578125 -3.203125 C 1.359375 -3.429688 1.25 -3.71875 1.25 -4.0625 C 1.25 -4.625 1.460938 -5.078125 1.890625 -5.421875 C 2.328125 -5.765625 2.863281 -5.9375 3.5 -5.9375 C 4.28125 -5.9375 4.804688 -5.707031 5.078125 -5.25 L 5.09375 -5.25 C 5.125 -5.5 5.140625 -5.628906 5.140625 -5.640625 C 5.148438 -5.773438 5.210938 -5.84375 5.328125 -5.84375 L 5.703125 -5.84375 C 5.804688 -5.84375 5.851562 -5.789062 5.84375 -5.6875 L 5.59375 -4.03125 C 5.582031 -3.925781 5.519531 -3.875 5.40625 -3.875 L 4.953125 -3.875 C 4.847656 -3.875 4.800781 -3.925781 4.8125 -4.03125 L 4.84375 -4.203125 C 4.84375 -4.234375 4.84375 -4.265625 4.84375 -4.296875 C 4.84375 -4.472656 4.738281 -4.660156 4.53125 -4.859375 C 4.320312 -5.054688 4.007812 -5.15625 3.59375 -5.15625 C 3.1875 -5.15625 2.851562 -5.0625 2.59375 -4.875 C 2.34375 -4.695312 2.21875 -4.453125 2.21875 -4.140625 C 2.21875 -3.785156 2.609375 -3.507812 3.390625 -3.3125 C 3.710938 -3.21875 4.035156 -3.117188 4.359375 -3.015625 C 4.679688 -2.921875 4.957031 -2.769531 5.1875 -2.5625 C 5.414062 -2.351562 5.53125 -2.085938 5.53125 -1.765625 C 5.53125 -1.253906 5.320312 -0.816406 4.90625 -0.453125 C 4.5 -0.0976562 3.890625 0.078125 3.078125 0.078125 Z M 3.078125 0.078125 "/></g></g></g><g fill="#ffb703" fill-opacity="1"><g transform="translate(227.288013, 188.663726)"><g><path d="M 2.875 0 L 0.609375 0 C 0.503906 0 0.457031 -0.046875 0.46875 -0.140625 L 0.5625 -0.65625 C 0.570312 -0.75 0.625 -0.796875 0.71875 -0.796875 L 1.375 -0.796875 L 1.984375 -5.046875 L 1.3125 -5.046875 C 1.21875 -5.046875 1.175781 -5.097656 1.1875 -5.203125 L 1.265625 -5.703125 C 1.273438 -5.796875 1.328125 -5.84375 1.421875 -5.84375 L 2.921875 -5.84375 C 3.015625 -5.84375 3.0625 -5.796875 3.0625 -5.703125 L 2.359375 -0.796875 L 3 -0.796875 C 3.09375 -0.796875 3.132812 -0.75 3.125 -0.65625 L 3.0625 -0.140625 C 3.050781 -0.046875 2.988281 0 2.875 0 Z M 2.8125 -7.8125 C 3 -7.8125 3.144531 -7.753906 3.25 -7.640625 C 3.363281 -7.523438 3.421875 -7.375 3.421875 -7.1875 C 3.421875 -7.007812 3.34375 -6.847656 3.1875 -6.703125 C 3.03125 -6.554688 2.859375 -6.484375 2.671875 -6.484375 C 2.492188 -6.484375 2.347656 -6.535156 2.234375 -6.640625 C 2.128906 -6.753906 2.078125 -6.898438 2.078125 -7.078125 C 2.078125 -7.265625 2.148438 -7.429688 2.296875 -7.578125 C 2.453125 -7.734375 2.625 -7.8125 2.8125 -7.8125 Z M 2.8125 -7.8125 "/></g></g></g><g fill="#ffb703" fill-opacity="1"><g transform="translate(231.367802, 188.663726)"><g><path d="M 6.6875 0 L 5.640625 0 C 5.460938 0 5.34375 -0.03125 5.28125 -0.09375 C 5.226562 -0.164062 5.203125 -0.238281 5.203125 -0.3125 C 5.203125 -0.382812 5.203125 -0.445312 5.203125 -0.5 L 5.296875 -1.171875 L 5.28125 -1.171875 C 5.101562 -0.835938 4.820312 -0.546875 4.4375 -0.296875 C 4.050781 -0.046875 3.609375 0.078125 3.109375 0.078125 C 2.410156 0.078125 1.851562 -0.148438 1.4375 -0.609375 C 1.03125 -1.066406 0.828125 -1.6875 0.828125 -2.46875 C 0.828125 -3.457031 1.125 -4.28125 1.71875 -4.9375 C 2.320312 -5.601562 3.078125 -5.9375 3.984375 -5.9375 C 4.460938 -5.9375 4.847656 -5.820312 5.140625 -5.59375 C 5.441406 -5.363281 5.644531 -5.085938 5.75 -4.765625 C 5.757812 -4.921875 5.773438 -5.050781 5.796875 -5.15625 L 6.15625 -7.734375 L 5.5 -7.734375 C 5.394531 -7.734375 5.347656 -7.785156 5.359375 -7.890625 L 5.4375 -8.390625 C 5.445312 -8.484375 5.5 -8.53125 5.59375 -8.53125 L 7.078125 -8.53125 C 7.179688 -8.53125 7.222656 -8.484375 7.203125 -8.390625 L 6.140625 -0.796875 L 6.796875 -0.796875 C 6.890625 -0.796875 6.9375 -0.75 6.9375 -0.65625 L 6.84375 -0.140625 C 6.832031 -0.046875 6.78125 0 6.6875 0 Z M 3.375 -0.75 C 3.96875 -0.75 4.472656 -0.984375 4.890625 -1.453125 C 5.316406 -1.929688 5.53125 -2.546875 5.53125 -3.296875 C 5.53125 -3.859375 5.382812 -4.296875 5.09375 -4.609375 C 4.800781 -4.929688 4.429688 -5.09375 3.984375 -5.09375 C 3.398438 -5.09375 2.890625 -4.859375 2.453125 -4.390625 C 2.023438 -3.929688 1.8125 -3.332031 1.8125 -2.59375 C 1.8125 -2.039062 1.953125 -1.59375 2.234375 -1.25 C 2.523438 -0.914062 2.90625 -0.75 3.375 -0.75 Z M 3.375 -0.75 "/></g></g></g><g fill="#ffb703" fill-opacity="1"><g transform="translate(239.241924, 188.663726)"><g><path d="M 6.296875 0 L 5.25 0 C 4.945312 0 4.796875 -0.125 4.796875 -0.375 C 4.796875 -0.40625 4.800781 -0.445312 4.8125 -0.5 L 4.90625 -1.109375 L 4.875 -1.109375 C 4.195312 -0.304688 3.367188 0.09375 2.390625 0.09375 C 1.867188 0.09375 1.445312 -0.0351562 1.125 -0.296875 C 0.8125 -0.554688 0.65625 -0.910156 0.65625 -1.359375 C 0.65625 -2.066406 0.960938 -2.59375 1.578125 -2.9375 C 2.203125 -3.28125 3.050781 -3.453125 4.125 -3.453125 L 5.125 -3.453125 L 5.15625 -3.59375 C 5.175781 -3.71875 5.1875 -3.835938 5.1875 -3.953125 C 5.1875 -4.703125 4.726562 -5.078125 3.8125 -5.078125 C 3.320312 -5.078125 2.960938 -5.03125 2.734375 -4.9375 C 2.515625 -4.84375 2.351562 -4.769531 2.25 -4.71875 C 2.15625 -4.664062 2.082031 -4.617188 2.03125 -4.578125 C 1.976562 -4.546875 1.945312 -4.53125 1.9375 -4.53125 C 1.851562 -4.5 1.796875 -4.507812 1.765625 -4.5625 L 1.484375 -4.984375 C 1.441406 -5.046875 1.457031 -5.109375 1.53125 -5.171875 C 1.601562 -5.242188 1.703125 -5.320312 1.828125 -5.40625 C 1.960938 -5.5 2.234375 -5.609375 2.640625 -5.734375 C 3.046875 -5.867188 3.484375 -5.9375 3.953125 -5.9375 C 5.429688 -5.9375 6.171875 -5.320312 6.171875 -4.09375 C 6.171875 -3.925781 6.15625 -3.75 6.125 -3.5625 L 5.734375 -0.796875 L 6.40625 -0.796875 C 6.5 -0.796875 6.539062 -0.75 6.53125 -0.65625 L 6.453125 -0.140625 C 6.441406 -0.046875 6.390625 0 6.296875 0 Z M 4.078125 -2.734375 C 3.347656 -2.734375 2.828125 -2.675781 2.515625 -2.5625 C 2.210938 -2.457031 2 -2.328125 1.875 -2.171875 C 1.757812 -2.023438 1.703125 -1.828125 1.703125 -1.578125 C 1.703125 -1.335938 1.800781 -1.140625 2 -0.984375 C 2.195312 -0.828125 2.46875 -0.75 2.8125 -0.75 C 3.582031 -0.75 4.273438 -1.085938 4.890625 -1.765625 L 5.015625 -2.734375 Z M 4.078125 -2.734375 "/></g></g></g><g fill="#ffb703" fill-opacity="1"><g transform="translate(246.735417, 188.663726)"><g><path d="M 6.6875 0 L 5.640625 0 C 5.460938 0 5.34375 -0.03125 5.28125 -0.09375 C 5.226562 -0.164062 5.203125 -0.238281 5.203125 -0.3125 C 5.203125 -0.382812 5.203125 -0.445312 5.203125 -0.5 L 5.296875 -1.171875 L 5.28125 -1.171875 C 5.101562 -0.835938 4.820312 -0.546875 4.4375 -0.296875 C 4.050781 -0.046875 3.609375 0.078125 3.109375 0.078125 C 2.410156 0.078125 1.851562 -0.148438 1.4375 -0.609375 C 1.03125 -1.066406 0.828125 -1.6875 0.828125 -2.46875 C 0.828125 -3.457031 1.125 -4.28125 1.71875 -4.9375 C 2.320312 -5.601562 3.078125 -5.9375 3.984375 -5.9375 C 4.460938 -5.9375 4.847656 -5.820312 5.140625 -5.59375 C 5.441406 -5.363281 5.644531 -5.085938 5.75 -4.765625 C 5.757812 -4.921875 5.773438 -5.050781 5.796875 -5.15625 L 6.15625 -7.734375 L 5.5 -7.734375 C 5.394531 -7.734375 5.347656 -7.785156 5.359375 -7.890625 L 5.4375 -8.390625 C 5.445312 -8.484375 5.5 -8.53125 5.59375 -8.53125 L 7.078125 -8.53125 C 7.179688 -8.53125 7.222656 -8.484375 7.203125 -8.390625 L 6.140625 -0.796875 L 6.796875 -0.796875 C 6.890625 -0.796875 6.9375 -0.75 6.9375 -0.65625 L 6.84375 -0.140625 C 6.832031 -0.046875 6.78125 0 6.6875 0 Z M 3.375 -0.75 C 3.96875 -0.75 4.472656 -0.984375 4.890625 -1.453125 C 5.316406 -1.929688 5.53125 -2.546875 5.53125 -3.296875 C 5.53125 -3.859375 5.382812 -4.296875 5.09375 -4.609375 C 4.800781 -4.929688 4.429688 -5.09375 3.984375 -5.09375 C 3.398438 -5.09375 2.890625 -4.859375 2.453125 -4.390625 C 2.023438 -3.929688 1.8125 -3.332031 1.8125 -2.59375 C 1.8125 -2.039062 1.953125 -1.59375 2.234375 -1.25 C 2.523438 -0.914062 2.90625 -0.75 3.375 -0.75 Z M 3.375 -0.75 "/></g></g></g></svg>